<svg width="6" height="10" viewBox="0 0 6 10" fill="none" xmlns="http://www.w3.org/2000/svg">
<path d="M0.240857 4.44852L4.47555 0.22131C4.5451 0.151184 4.62785 0.0955243 4.71902 0.0575403C4.81019 0.0195562 4.90798 0 5.00675 0C5.10552 0 5.20331 0.0195562 5.29448 0.0575403C5.38566 0.0955243 5.46841 0.151184 5.53796 0.22131C5.67731 0.36149 5.75552 0.551118 5.75552 0.748776C5.75552 0.946434 5.67731 1.13606 5.53796 1.27624L1.83448 5.01713L5.53796 8.72062C5.67731 8.8608 5.75552 9.05042 5.75552 9.24808C5.75552 9.44574 5.67731 9.63537 5.53796 9.77555C5.46867 9.84624 5.38603 9.90248 5.29485 9.94101C5.20367 9.97954 5.10574 9.99959 5.00675 10C4.90776 9.99959 4.80984 9.97954 4.71866 9.94101C4.62747 9.90248 4.54484 9.84624 4.47555 9.77555L0.240857 5.54834C0.164913 5.47828 0.104304 5.39325 0.0628495 5.2986C0.0213952 5.20396 -6.19888e-06 5.10175 -6.19888e-06 4.99843C-6.19888e-06 4.8951 0.0213952 4.7929 0.0628495 4.69826C0.104304 4.60361 0.164913 4.51858 0.240857 4.44852Z" fill="#2F4966"/>
</svg>
