<svg width="22" height="14" viewBox="0 0 22 14" fill="none" xmlns="http://www.w3.org/2000/svg">
<path d="M7.84713 7.49045H1.87261V12.4841H8.9172V14H0V0H8.73885V1.51592H1.87261V5.97452H7.9363V7.49045H7.84713Z" fill="#2F4966"/>
<path d="M13.0191 8.47134V13.9108H11.1465V0H16.3185C17.8344 0 19.0828 0.356688 19.8853 1.15924C20.7771 1.96178 21.2229 2.94268 21.2229 4.28026C21.2229 5.61783 20.7771 6.6879 19.9745 7.40127C19.172 8.11465 17.9236 8.47134 16.3185 8.47134H13.0191ZM13.0191 6.95541H16.3185C17.2993 6.95541 18.0127 6.6879 18.5478 6.24204C19.0828 5.79618 19.3503 5.0828 19.3503 4.19108C19.3503 3.38853 19.0828 2.67516 18.5478 2.2293C18.0127 1.78344 17.2993 1.42675 16.4076 1.42675H13.0191V6.95541V6.95541Z" fill="#2F4966"/>
</svg>
