<svg xmlns="http://www.w3.org/2000/svg" viewBox="0 0 384.08 324.05"><defs><style>.cls-1{fill:#211915;}</style></defs><title>Ativo 1</title><g id="Camada_2" data-name="Camada 2"><g id="Camada_2-2" data-name="Camada 2"><path class="cls-1" d="M383.14,278.64c-3.83-9-16.73-32.59-16.73-32.59l16.88-32.91s3.44-9-4.76-9H341.09s-18.37.31-31.5,23.83H209.87V204.16H221s21.57-.55,24.86-24.16c0,0-.29-13.91,0-15.86.46-.78,10.55,15.71,10.55,15.71s3.28,6.17,7.66,6.17H335.7s6.09.55,6.09-6.48v-72.3c0-31.52-26.13-71.14-71.69-71.14-43.73,0-72.33,37.3-72.33,66.14V108h-16L126.15,57.63l.17-5A5.5,5.5,0,0,1,132,48s23.71,3.08,23.71-16.27V6.08S155.86,0,148.82,0H100.44s-6.8.4-10.6,3.2c-4.24,2.44-11.79,9.59-11.79,19V35.42l-27.7-5.16c-7.74-1.72-10.94,7-7.74,9.38.71.7,25.4,20.55,25.4,20.55S45.35,78.71,43.08,80.51c-3,2.74-2.34,9.15,5.08,9.46,5.78,0,22.28-4.3,22.28-4.3L66.06,112s-1.88,8,5.7,8H97.31s4.62,0,4.62-6.1v-13l57.13,99.34s1.71,3.83,5.63,3.83h9.15v24.31H47.77V210c0-4.69-5.86-8.37-8.75-5.47-6.72,5.62-37.6,37.59-37.6,37.59s-3.2,4.69,0,7.89l36.74,36.89S38.94,288,42,288c2.42,0,5.94-1.41,5.94-5.87v-18H173.84v54.55s0,5.32,5.94,5.32h24.15s5.94.47,5.94-6.26V264.18h99.49s14.14,24,32.12,24h36.34S387,287.63,383.14,278.64ZM154.85,99.77,178,120l19.4.17c0,2.45-6.66,18-23.37,18S150,124.06,150,115A26,26,0,0,1,154.85,99.77ZM168.34,192,100.23,73.85c-6.93-5.78-10.17,1.27-10.17,3.47V108H78.84s4.51-24,5.09-29.6-4.74-6.24-6.36-6.24a48.34,48.34,0,0,0-6.24,1L82.68,64c3.91-3.87-.17-7.66-.17-7.66L70.2,45.82s9,2.5,14.64,2.5S90,41.83,90,41.83V23.36c0-10.15,11.31-11.48,11.31-11.48h42.76s0,12.37,0,18-5.43,6.35-5.43,6.35h-9.83c-11.68,0-14.68,14.92-14.68,14.92V62.41L146,92.24c-16.13,16.13-8.56,57.81,28.1,57.81,39.31,0,35.72-44.29,35.72-44.29,0-39.89,36.19-57.81,61-57.81,51.57,0,59.2,49.6,59.2,57.47V174H324V126.23c0-1.74-.81-6.13-6.12-6.13s-5.9,5.55-5.9,5.55v48.56h-6V125.88c0-3.35-2.2-6-6.59-6s-5.32,5.67-5.32,5.67v48.67h-6.25v-48c0-2-.92-6.24-6.24-6.24s-5.78,5.31-5.78,5.31v48.8h-8.67s-20.7-31.45-21.62-32.72a10.07,10.07,0,0,0-2.08-2.09c-7.75-3.93-9.25,2.32-9.25,4.05v35.15C231,192,220.13,192,220.13,192Zm29.5,12v24h-12v-24Zm0,108.09h-12v-48h12Zm143.62-35.89c-10.42,0-21.55-17.86-23.61-20.92a7.42,7.42,0,0,0-5.3-3.23H41.69c-6,0-5.83,6.29-5.83,6.29v9.51L14.31,246.1l21.55-21.82v10.33c0,5.29,5.56,5.47,5.56,5.47h271c4.22,0,6-4.31,6-4.31,13.55-20.29,23.07-19.48,23.07-19.48h27l-14.36,28.55v3.41l14.36,28Z"/></g></g></svg>