<svg width="32" height="14" viewBox="0 0 32 14" fill="none" xmlns="http://www.w3.org/2000/svg">
<path d="M10.5 9.5375C10.325 11.025 9.8 12.075 8.925 12.8625C8.05 13.65 6.825 14 5.3375 14C3.7625 14 2.45 13.3875 1.4875 12.25C0.525 11.2 0 9.625 0 7.7V6.3875C0 5.075 0.2625 4.025 0.7 3.0625C1.1375 2.0125 1.75 1.3125 2.625 0.7875C3.4125 0.2625 4.375 0 5.5125 0C7 0 8.1375 0.4375 9.0125 1.225C9.8875 2.0125 10.4125 3.15 10.5875 4.6375H8.75C8.575 3.5 8.225 2.7125 7.7 2.1875C7.175 1.75 6.475 1.4875 5.5125 1.4875C4.375 1.4875 3.4125 1.925 2.8 2.7125C2.1 3.5875 1.8375 4.8125 1.8375 6.3875V7.7C1.8375 9.1875 2.1875 10.4125 2.8 11.2875C3.4125 12.1625 4.2875 12.6 5.425 12.6C6.3875 12.6 7.175 12.3375 7.7 11.9C8.225 11.4625 8.575 10.675 8.75 9.5375H10.5V9.5375Z" fill="#2F4966"/>
<path d="M19.0749 10.3247H13.2999L11.9874 13.9122H10.1499L15.3999 0.262207H16.9749L22.2249 13.9122H20.3874L19.0749 10.3247ZM13.9124 8.83721H18.5499L16.1874 2.44971L13.9124 8.83721Z" fill="#2F4966"/>
<path d="M26.6875 7.7875C25.1125 7.35 23.975 6.825 23.275 6.125C22.575 5.5125 22.225 4.6375 22.225 3.7625C22.225 2.7125 22.6625 1.75 23.5375 1.05C24.4125 0.35 25.55 0 26.8625 0C27.825 0 28.6125 0.175 29.4 0.525C30.1 0.875 30.7125 1.4 31.15 2.0125C31.5875 2.625 31.7625 3.325 31.7625 4.1125H29.925C29.925 3.325 29.6625 2.625 29.1375 2.1875C28.6125 1.75 27.825 1.4875 26.95 1.4875C26.075 1.4875 25.375 1.6625 24.85 2.1C24.325 2.45 24.0625 3.0625 24.0625 3.7625C24.0625 4.2875 24.325 4.8125 24.7625 5.1625C25.2 5.5125 26.075 5.8625 27.2125 6.2125C28.35 6.5625 29.225 6.9125 29.925 7.2625C30.5375 7.6125 31.0625 8.1375 31.325 8.575C31.675 9.1 31.7625 9.7125 31.7625 10.4125C31.7625 11.55 31.325 12.425 30.45 13.0375C29.575 13.65 28.4375 14 26.95 14C25.9875 14 25.1125 13.825 24.325 13.475C23.5375 13.125 22.925 12.6 22.4 11.9875C22.05 11.375 21.875 10.675 21.875 9.8875H23.625C23.625 10.675 23.8875 11.375 24.5 11.8125C25.1125 12.25 25.9 12.5125 26.95 12.5125C27.9125 12.5125 28.6125 12.3375 29.1375 11.9C29.6625 11.55 29.925 11.025 29.925 10.325C29.925 9.625 29.6625 9.1 29.225 8.75C28.7875 8.4 27.9125 8.1375 26.6875 7.7875Z" fill="#2F4966"/>
</svg>
