<svg width="14" height="14" viewBox="0 0 14 14" fill="none" xmlns="http://www.w3.org/2000/svg">
<path d="M12.6409 6.021H7.76595V1.146C7.76595 0.930508 7.68034 0.723845 7.52797 0.571472C7.3756 0.419099 7.16893 0.333496 6.95345 0.333496C6.73796 0.333496 6.53129 0.419099 6.37892 0.571472C6.22655 0.723845 6.14095 0.930508 6.14095 1.146V6.021H1.26595C1.05046 6.021 0.843795 6.1066 0.691421 6.25897C0.539048 6.41135 0.453445 6.61801 0.453445 6.8335C0.453445 7.04898 0.539048 7.25565 0.691421 7.40802C0.843795 7.56039 1.05046 7.646 1.26595 7.646H6.14095V12.521C6.14095 12.7365 6.22655 12.9431 6.37892 13.0955C6.53129 13.2479 6.73796 13.3335 6.95345 13.3335C7.16893 13.3335 7.3756 13.2479 7.52797 13.0955C7.68034 12.9431 7.76595 12.7365 7.76595 12.521V7.646H12.6409C12.8564 7.646 13.0631 7.56039 13.2155 7.40802C13.3678 7.25565 13.4534 7.04898 13.4534 6.8335C13.4534 6.61801 13.3678 6.41135 13.2155 6.25897C13.0631 6.1066 12.8564 6.021 12.6409 6.021Z" fill="#2F4966"/>
</svg>
