<svg width="21" height="14" viewBox="0 0 21 14" fill="none" xmlns="http://www.w3.org/2000/svg">
<path d="M5.0828 8.29299H1.87261V13.9108H0V0H4.63694C6.24204 0 7.40127 0.356688 8.29299 1.07006C9.09554 1.78344 9.5414 2.8535 9.5414 4.19108C9.5414 5.0828 9.27389 5.79618 8.82803 6.42038C8.38217 7.13376 7.66879 7.57962 6.86624 7.93631L10.1656 13.8217V13.9108H8.11465L5.0828 8.29299ZM1.87261 6.77707H4.72611C5.61783 6.77707 6.33121 6.50955 6.86624 6.06369C7.40127 5.61783 7.66879 4.99363 7.66879 4.19108C7.66879 3.29936 7.40127 2.67516 6.86624 2.2293C6.33121 1.78344 5.61783 1.51592 4.63694 1.51592H1.87261V6.77707Z" fill="#2F4966"/>
<path d="M20.9558 1.51592H16.4972V14H14.6246V1.51592H10.166V0H20.9558V1.51592Z" fill="#2F4966"/>
</svg>
