<?xml version="1.0" encoding="utf-8"?>
<!-- Generator: Adobe Illustrator 23.0.1, SVG Export Plug-In . SVG Version: 6.00 Build 0)  -->
<svg version="1.1" id="Camada_1" xmlns="http://www.w3.org/2000/svg" xmlns:xlink="http://www.w3.org/1999/xlink" x="0px" y="0px"
	 viewBox="0 0 16 16" style="enable-background:new 0 0 16 16;" xml:space="preserve">
<path d="M2,2c0-1.1,0.9-2,2-2h8c1.1,0,2,0.9,2,2v12c0,1.1-0.9,2-2,2H4c-1.1,0-2-0.9-2-2V2z M4,1C3.4,1,3,1.4,3,2v0.9l10,0V2
	c0-0.6-0.4-1-1-1H4z M13,7H6v2h7V7z M13,10H6v2h7V10z M13,13H6v2h6c0.6,0,1-0.4,1-1V13z M5,15v-2H3v1c0,0.6,0.4,1,1,1H5z M3,12h2v-2
	H3V12z M3,9h2V7H3V9z M13,4H6v2h7V4z M3,6h2V4H3V6z"/>
</svg>
