<svg width="34" height="14" viewBox="0 0 34 14" fill="none" xmlns="http://www.w3.org/2000/svg">
<path d="M10.5217 12C10.087 12.6957 9.3913 13.1304 8.6087 13.4783C7.82609 13.8261 6.78261 14 5.73913 14C4.6087 14 3.65217 13.7391 2.78261 13.2174C1.91304 12.6957 1.21739 12 0.782609 10.9565C0.26087 10 0 8.86957 0 7.65217V6.43478C0 4.34783 0.434783 2.78261 1.3913 1.65217C2.34783 0.521739 3.73913 0 5.47826 0C6.86957 0 8 0.347826 8.86957 1.13043C9.73913 1.82609 10.2609 2.86957 10.4348 4.26087H8.69565C8.34783 2.34783 7.30435 1.47826 5.47826 1.47826C4.26087 1.47826 3.3913 1.91304 2.78261 2.78261C2.17391 3.65217 1.82609 4.78261 1.82609 6.43478V7.56522C1.82609 9.13043 2.17391 10.3478 2.86957 11.2174C3.56522 12.087 4.52174 12.6087 5.73913 12.6087C6.43478 12.6087 6.95652 12.5217 7.47826 12.3478C8 12.1739 8.43478 11.913 8.69565 11.5652V8.52174H5.56522V7.04348H10.5217V12V12Z" fill="#2F4966"/>
<path d="M20.6142 7.47769H14.7012V12.2603H21.5707V13.7386H12.962V0.17334H21.4838V1.6516H14.7012V5.99943H20.6142V7.47769V7.47769Z" fill="#2F4966"/>
<path d="M33.6632 7.39126C33.6632 8.69561 33.4023 9.913 32.9675 10.8695C32.5328 11.826 31.9241 12.6087 31.0545 13.1304C30.1849 13.6521 29.3154 13.913 28.1849 13.913C27.1414 13.913 26.1849 13.6521 25.3154 13.1304C24.4458 12.6087 23.8371 11.826 23.4023 10.8695C22.9675 9.913 22.7067 8.78257 22.7067 7.47822V6.60865C22.7067 5.30431 22.9675 4.17387 23.4023 3.13039C23.8371 2.08691 24.5328 1.39126 25.3154 0.869523C26.1849 0.347784 27.1414 0.0869141 28.1849 0.0869141C29.3154 0.0869141 30.2719 0.347784 31.0545 0.869523C31.9241 1.39126 32.5328 2.17387 32.9675 3.13039C33.4023 4.08691 33.6632 5.30431 33.6632 6.60865V7.39126ZM31.9241 6.5217C31.9241 4.86952 31.5762 3.65213 30.9675 2.78257C30.3588 1.913 29.4023 1.47822 28.2719 1.47822C27.1414 1.47822 26.2719 1.913 25.5762 2.78257C24.9675 3.65213 24.6197 4.86952 24.5328 6.34778V7.3043C24.5328 8.86952 24.8806 10.0869 25.4893 10.9565C26.1849 11.826 27.0545 12.2608 28.1849 12.2608C29.3154 12.2608 30.2719 11.826 30.8806 10.9565C31.4893 10.0869 31.8371 8.86952 31.8371 7.3043V6.5217H31.9241Z" fill="#2F4966"/>
</svg>
