<?xml version="1.0" encoding="utf-8"?>
<!-- Generator: Adobe Illustrator 23.0.1, SVG Export Plug-In . SVG Version: 6.00 Build 0)  -->
<svg version="1.1" id="objects" xmlns="http://www.w3.org/2000/svg" xmlns:xlink="http://www.w3.org/1999/xlink" x="0px" y="0px"
	 viewBox="0 0 230 245" style="enable-background:new 0 0 230 245;" xml:space="preserve">
<style type="text/css">
	.st0{fill:#383E4B;}
</style>
<path class="st0" d="M104.9,19.9L52.1,117c-1.9,3.5-1.8,7.5,0.2,11c2,3.4,5.7,5.3,9.7,5.3h25.5l0,84.9c0,6.2,4.2,10.8,10.4,10.8
	h33.8c6.2,0,12.1-4.6,12.1-10.8v-84.9h23.8c4,0,7.6-1.8,9.7-5.3c1.1-1.8,1.6-3.7,1.6-5.7c0-1.8-0.5-3.6-1.3-5.3l-52.7-97.1
	c-2-3.7-5.7-5.9-9.8-5.9C110.6,14.1,106.9,16.4,104.9,19.9z"/>
</svg>
