<?xml version="1.0" encoding="utf-8"?>
<!-- Generator: Adobe Illustrator 23.0.1, SVG Export Plug-In . SVG Version: 6.00 Build 0)  -->
<svg version="1.1" xmlns="http://www.w3.org/2000/svg" xmlns:xlink="http://www.w3.org/1999/xlink" x="0px" y="0px"
	 viewBox="0 0 445.8 414" style="enable-background:new 0 0 445.8 414;" xml:space="preserve">
<style type="text/css">
	.st0{display:none;}
	.st1{display:inline;}
	.st2{fill:#C85333;}
</style>
<g id="Camada_1" class="st0">
	<g class="st1">
		
			<image style="overflow:visible;" width="512" height="512" xlink:href="../ideias para icones/categorization.png"  transform="matrix(0.75 0 0 0.75 3.4613 37.6508)">
		</image>
		<path class="st2" d="M294.4,85.7h-28.1c0,0-10.9,0.1-10.9,11.5s0,120.4,0,120.4h-12.9c0,0-11.3,0.8-11.3,12
			c0,11.3,10.5,12,11.5,12s12.8,0,12.8,0v121.5c0,0,0,10.4,10.8,10.4c9.7,0,27.5,0,27.5,0h1.2v-23.9h-15.5v-108h14.8v-24.1h-15
			V109.6h15.3L294.4,85.7z"/>
		<g>
			<path class="st2" d="M327.4,61.4c-20,0-36.2,16.2-36.2,36.2s16.2,36.2,36.2,36.2s36.2-16.2,36.2-36.2S347.5,61.4,327.4,61.4z
				 M327.4,109.6c-6.6,0-12-5.4-12-12c0-6.6,5.4-12,12-12s12,5.4,12,12C339.4,104.3,334.1,109.6,327.4,109.6z"/>
		</g>
		<g>
			<path class="st2" d="M327.4,193.4c-20,0-36.2,16.2-36.2,36.2s16.2,36.2,36.2,36.2s36.2-16.2,36.2-36.2S347.5,193.4,327.4,193.4z
				 M327.4,241.6c-6.6,0-12-5.4-12-12c0-6.6,5.4-12,12-12s12,5.4,12,12C339.4,236.2,334.1,241.6,327.4,241.6z"/>
		</g>
		<g>
			<path class="st2" d="M327.4,325.1c-20,0-36.2,16.2-36.2,36.2s16.2,36.2,36.2,36.2s36.2-16.2,36.2-36.2S347.5,325.1,327.4,325.1z
				 M327.4,373.4c-6.6,0-12-5.4-12-12c0-6.6,5.4-12,12-12s12,5.4,12,12C339.4,368,334.1,373.4,327.4,373.4z"/>
		</g>
		<g>
			<path class="st2" d="M213.5,182.6l-84.5-46c-4.5-2.4-10-1.7-13.6,1.8l-80.8,76c-4,3.8-4.9,9.9-2,14.6l50.6,83.8
				c2.1,3.5,5.9,5.7,10,5.7h113.6c6.4,0,11.7-5.2,11.7-11.6l1.1-113.9C219.7,188.7,217.3,184.7,213.5,182.6z M204.3,298
				c-0.1,5.6-4.5,10.1-10,10.1H98c-3.5,0-6.7-1.9-8.5-4.9l-42.9-72.6c-2.4-4.1-1.7-9.4,1.7-12.7l68.6-65.9c3.1-3,7.8-3.6,11.6-1.5
				l71.7,39.8c3.2,1.8,5.2,5.3,5.2,9L204.3,298z"/>
		</g>
	</g>
</g>
<g id="Camada_2">
	
		<image style="display:none;overflow:visible;" width="700" height="700" xlink:href="2C91A451.jpg"  transform="matrix(1 0 0 1 -134.8385 -52.7994)">
	</image>
	<path d="M98,309H57.3c-9.4,0-17,7.7-17,17v42.1c0,9.4,7.7,17,17,17H98c9.4,0,17-7.7,17-17V326C115,316.7,107.4,309,98,309z
		 M103.1,368.8c0,1.9-1.6,3.5-3.5,3.5H55.7c-1.9,0-3.5-1.6-3.5-3.5v-43.1c0-1.9,1.6-3.5,3.5-3.5h43.9c1.9,0,3.5,1.6,3.5,3.5V368.8z"
		/>
	<g>
		<path d="M71.3,309v-66.6c0,0-0.1-7.3,7.1-7.3s34.2,0,34.2,0s6.6-0.2,6.6,7.1c0,7.2-4.9,7-6.1,7H85.1V309H71.3z"/>
		<path d="M223,309v-59.8l123.1,0c0,0,14.1-5.8,14.1-6.8c0-1.1-0.6-7.3-6.9-7.3c-30,0-131.3,0-137.4,0c-7.2,0-58.3,0-58.3,0
			s-7.5-0.2-7.5,7.1c0,7.2,6.4,7,7.5,7h51.5V309H223z"/>
		<polygon points="346.2,249.2 346.2,309 360.2,309 360.2,242.4 		"/>
	</g>
	<path d="M235.5,309h-40.7c-9.4,0-17,7.7-17,17v42.1c0,9.4,7.7,17,17,17h40.7c9.4,0,17-7.7,17-17V326
		C252.5,316.7,244.9,309,235.5,309z M240.6,368.8c0,1.9-1.6,3.5-3.5,3.5h-43.9c-1.9,0-3.5-1.6-3.5-3.5v-43.1c0-1.9,1.6-3.5,3.5-3.5
		h43.9c1.9,0,3.5,1.6,3.5,3.5V368.8z"/>
	<path d="M373.5,309h-40.7c-9.4,0-17,7.7-17,17v42.1c0,9.4,7.7,17,17,17h40.7c9.4,0,17-7.7,17-17V326
		C390.6,316.7,382.9,309,373.5,309z M378.6,368.8c0,1.9-1.6,3.5-3.5,3.5h-43.9c-1.9,0-3.5-1.6-3.5-3.5v-43.1c0-1.9,1.6-3.5,3.5-3.5
		h43.9c1.9,0,3.5,1.6,3.5,3.5V368.8z"/>
	<rect x="209.2" y="163.2" width="13.8" height="71.9"/>
	<path d="M215.7,65.1c-20.8,0-37.7,16.9-37.7,37.7s16.9,37.7,37.7,37.7s37.7-16.9,37.7-37.7S236.5,65.1,215.7,65.1z M215.7,127.5
		c-13.7,0-24.8-11.1-24.8-24.8s11.1-24.8,24.8-24.8s24.8,11.1,24.8,24.8S229.4,127.5,215.7,127.5z"/>
	<path d="M215.7,40.2c-34.5,0-62.5,28-62.5,62.5s28,62.5,62.5,62.5s62.5-28,62.5-62.5S250.2,40.2,215.7,40.2z M215.7,152.4
		c-27.4,0-49.6-22.2-49.6-49.6s22.2-49.6,49.6-49.6s49.6,22.2,49.6,49.6S243.1,152.4,215.7,152.4z"/>
</g>
</svg>
