<svg width="20" height="20" viewBox="0 0 20 20" fill="none" xmlns="http://www.w3.org/2000/svg">
<path d="M10.1143 0L15.5048 5.4L13.4857 7.41905L11.4667 5.4L10.1143 6.75238L12.3333 8.9619L11.2286 10.0762L11.6571 10.5143C12.5429 10.1048 13.6286 10.2571 14.3524 10.9905L10.9905 14.3524C10.2571 13.6286 10.1048 12.5429 10.5143 11.6571L10.0762 11.2286L8.9619 12.3333L6.75238 10.1143L5.4 11.4667L7.41905 13.4857L5.4 15.5048L0 10.1143L2.0381 8.09524L4.05714 10.1143L5.4 8.77143L2.70476 6.07619C1.9619 5.33333 1.9619 4.12381 2.70476 3.38095L3.38095 2.70476C4.12381 1.9619 5.33333 1.9619 6.07619 2.70476L8.77143 5.4L10.1143 4.05714L8.09524 2.0381L10.1143 0ZM16.1905 12.381C16.1905 13.3913 15.7891 14.3603 15.0747 15.0747C14.3603 15.7891 13.3913 16.1905 12.381 16.1905V14.2857C12.8861 14.2857 13.3706 14.085 13.7278 13.7278C14.085 13.3706 14.2857 12.8861 14.2857 12.381H16.1905ZM20 12.381C20 14.4016 19.1973 16.3396 17.7684 17.7684C16.3396 19.1973 14.4016 20 12.381 20V18.0952C13.8965 18.0952 15.3499 17.4932 16.4216 16.4216C17.4932 15.3499 18.0952 13.8965 18.0952 12.381H20Z" fill="#2F4966"/>
</svg>
