<svg id="Camada_1" data-name="Camada 1" xmlns="http://www.w3.org/2000/svg" viewBox="0 0 14.03 14"><defs><style>.cls-1{fill:#070308;}</style></defs><title>busca cliente</title><path class="cls-1" d="M421,298.55a5.67,5.67,0,0,1,1.44-3.59,5.46,5.46,0,0,1,3.9-1.94,5.81,5.81,0,0,1,4.71,2,6.21,6.21,0,0,1,1.42,3.59h-.75a5,5,0,0,0-5-4.82,5.38,5.38,0,0,0-3.52,1.45,5.07,5.07,0,0,0-1.47,3.57,5,5,0,0,0,4.83,5v.72A5.79,5.79,0,0,1,421,298.55Z" transform="translate(-420.99 -293.01)"/><path class="cls-1" d="M426.57,299.33l1.55,5.19a.54.54,0,0,0,.39.38.51.51,0,0,0,.52-.16l.9-.89,3,3a.52.52,0,0,0,.74,0h0l1.19-1.19a.59.59,0,0,0,0-.8l-3-3,.84-.83a.53.53,0,0,0,0-.78.43.43,0,0,0-.23-.14l-5.21-1.54a.57.57,0,0,0-.7.37.62.62,0,0,0,0,.33Z" transform="translate(-420.99 -293.01)"/><path class="cls-1" d="M426.65,294.73a3.84,3.84,0,0,1,4.07,3.9H430a3.1,3.1,0,0,0-3.26-3.14,3.41,3.41,0,0,0-2.3.95,3.29,3.29,0,0,0-1,2.32,3.26,3.26,0,0,0,3.14,3.26v.67a3.93,3.93,0,0,1-3.84-4A4.06,4.06,0,0,1,426.65,294.73Z" transform="translate(-420.99 -293.01)"/></svg>