<svg id="Camada_1" data-name="Camada 1" xmlns="http://www.w3.org/2000/svg" viewBox="0 0 38.21 14"><defs><style>.cls-1{fill:#211915;}</style></defs><title>raios-gld</title><path class="cls-1" d="M408.5,305a7,7,0,0,1-2.77-.54A6.93,6.93,0,0,1,403.5,303a6.8,6.8,0,0,1-1.5-2.22,7.32,7.32,0,0,1,0-5.52,6.85,6.85,0,0,1,1.5-2.23,6.74,6.74,0,0,1,2.23-1.48,7.19,7.19,0,0,1,2.77-.52,8.13,8.13,0,0,1,1.92.22,5.83,5.83,0,0,1,1.68.69.61.61,0,0,1,.28.27.83.83,0,0,1-.13.94.71.71,0,0,1-.52.23.54.54,0,0,1-.22,0l-.23-.08a5.93,5.93,0,0,0-1.3-.49,5.51,5.51,0,0,0-1.48-.19,5.3,5.3,0,0,0-2.75.72,5.18,5.18,0,0,0-1.91,1.95,5.44,5.44,0,0,0-.7,2.78,5.51,5.51,0,0,0,.7,2.77,5.18,5.18,0,0,0,1.91,1.95,5.3,5.3,0,0,0,2.75.72,6.53,6.53,0,0,0,1.61-.21,6.19,6.19,0,0,0,1.41-.55l-.14.47V299l.31.27h-3a.77.77,0,0,1-.56-.23.72.72,0,0,1-.22-.55.74.74,0,0,1,.22-.55.77.77,0,0,1,.56-.23h3.54a.71.71,0,0,1,.56.24.79.79,0,0,1,.21.56V303a.78.78,0,0,1-.1.41,1,1,0,0,1-.28.29,8.23,8.23,0,0,1-1.94.91A7.4,7.4,0,0,1,408.5,305Z" transform="translate(-401.46 -290.98)"/><path class="cls-1" d="M424.29,303.24a.81.81,0,0,1,.57.23.77.77,0,0,1,0,1.1.84.84,0,0,1-.57.21h-6.73a.75.75,0,0,1-.55-.23.78.78,0,0,1-.22-.57V292a.73.73,0,0,1,.23-.56.86.86,0,0,1,1.15,0,.77.77,0,0,1,.23.56V303.6l-.39-.36Z" transform="translate(-401.46 -290.98)"/><path class="cls-1" d="M433.94,291.17a5.54,5.54,0,0,1,2.5.54,5,5,0,0,1,1.79,1.48,6.79,6.79,0,0,1,1.08,2.19,9.23,9.23,0,0,1,.36,2.6,8.78,8.78,0,0,1-.64,3.41,5.74,5.74,0,0,1-1.9,2.47,5.33,5.33,0,0,1-3.19.92h-4.86a.75.75,0,0,1-.56-.23.78.78,0,0,1-.22-.57V292a.76.76,0,0,1,.22-.56.79.79,0,0,1,.56-.22Zm-.2,12.1a3.91,3.91,0,0,0,2.44-.72,4.14,4.14,0,0,0,1.38-1.93A7.46,7.46,0,0,0,438,298a8.4,8.4,0,0,0-.24-2,5.48,5.48,0,0,0-.76-1.7,3.61,3.61,0,0,0-1.32-1.16,4.06,4.06,0,0,0-1.94-.43h-4l.15-.16v10.95l-.12-.19Z" transform="translate(-401.46 -290.98)"/></svg>