<svg id="Camada_1" data-name="Camada 1" xmlns="http://www.w3.org/2000/svg" viewBox="0 0 14 13.99"><title>granizo</title><path d="M1.78,10.45a1.77,1.77,0,1,0,1.78,1.77A1.77,1.77,0,0,0,1.78,10.45Zm0,2.74a1,1,0,1,1,0-1.94,1,1,0,0,1,0,1.94Z" transform="translate(0 -0.01)"/><path d="M6.43,11a1.51,1.51,0,1,0,1.5,1.51A1.51,1.51,0,0,0,6.43,11Zm0,2.21a.7.7,0,0,1-.71-.7.71.71,0,1,1,1.41,0A.7.7,0,0,1,6.43,13.19Z" transform="translate(0 -0.01)"/><path d="M10.78,11a1.51,1.51,0,1,0,1.51,1.51A1.51,1.51,0,0,0,10.78,11Zm0,2.21a.7.7,0,0,1-.7-.7.7.7,0,0,1,.7-.71.71.71,0,0,1,.71.71A.7.7,0,0,1,10.78,13.19Z" transform="translate(0 -0.01)"/><path d="M10.51,7.18a1.23,1.23,0,1,0,1.23,1.23A1.23,1.23,0,0,0,10.51,7.18Zm0,1.65a.42.42,0,1,1,.42-.42A.42.42,0,0,1,10.51,8.83Z" transform="translate(0 -0.01)"/><path d="M6.16,6.63A1.24,1.24,0,1,0,7.39,7.87,1.24,1.24,0,0,0,6.16,6.63Zm0,1.65a.41.41,0,0,1-.42-.41.42.42,0,0,1,.42-.42.41.41,0,0,1,.41.42A.41.41,0,0,1,6.16,8.28Z" transform="translate(0 -0.01)"/><path d="M1.52,6.09A1.52,1.52,0,1,0,3,7.61,1.52,1.52,0,0,0,1.52,6.09Zm0,2.21a.7.7,0,1,1,.69-.69A.69.69,0,0,1,1.52,8.3Z" transform="translate(0 -0.01)"/><path d="M1.52,2A1.23,1.23,0,1,0,2.74,3.23,1.23,1.23,0,0,0,1.52,2Zm0,1.66a.43.43,0,0,1-.43-.43.43.43,0,0,1,.43-.43A.43.43,0,0,1,2,3.23.44.44,0,0,1,1.52,3.66Z" transform="translate(0 -0.01)"/><path d="M6.42,1.45a1.23,1.23,0,1,0,0,2.45,1.23,1.23,0,0,0,0-2.45Zm0,1.66a.43.43,0,1,1,.43-.43A.43.43,0,0,1,6.42,3.11Z" transform="translate(0 -0.01)"/><rect x="2.61" y="0.58" width="2.27" height="0.84" rx="0.35" transform="translate(0.39 2.94) rotate(-45)"/><rect x="7.61" y="0.31" width="1.52" height="0.81" rx="0.34" transform="translate(1.95 6.12) rotate(-45)"/><rect x="2.73" y="4.61" width="2.63" height="0.84" rx="0.35" transform="translate(-2.38 4.33) rotate(-45)"/><rect x="6.27" y="2.85" width="8.86" height="0.91" rx="0.38" transform="translate(0.8 8.53) rotate(-45)"/><rect x="11.55" y="5.62" width="2.63" height="0.84" rx="0.35" transform="translate(-0.5 10.86) rotate(-45)"/><rect x="3.37" y="9.44" width="1.57" height="0.81" rx="0.34" transform="translate(-5.75 5.82) rotate(-45)"/><rect x="7.81" y="9.95" width="1.49" height="0.81" rx="0.34" transform="translate(-4.82 9.07) rotate(-45)"/><rect x="12.09" y="9.77" width="2.01" height="0.81" rx="0.34" transform="translate(-3.36 12.23) rotate(-45)"/></svg>