<svg width="49" height="14" viewBox="0 0 49 14" fill="none" xmlns="http://www.w3.org/2000/svg">
<path d="M2.34783 0.173828L6.78261 11.3043L11.2174 0.173828H13.5652V13.739H11.7391V8.52165L11.913 2.78252L7.47826 13.826H6.08696L1.65217 2.78252L1.82609 8.4347V13.739H0V0.173828H2.34783Z" fill="#2F4966"/>
<path d="M25.3044 12C24.8696 12.6957 24.174 13.1304 23.3914 13.4783C22.6088 13.8261 21.5653 14 20.5218 14C19.3914 14 18.4348 13.7391 17.5653 13.2174C16.6957 12.6957 16.0001 12 15.5653 10.9565C15.1305 10 14.8696 8.86957 14.8696 7.65217V6.43478C14.8696 4.34783 15.3044 2.78261 16.2609 1.65217C17.2175 0.521739 18.5218 0 20.2609 0C21.6522 0 22.7827 0.347826 23.6522 1.13043C24.5218 1.82609 25.0435 2.86957 25.2175 4.26087H23.4783C23.1305 2.43478 22.087 1.56522 20.2609 1.56522C19.0435 1.56522 18.174 2 17.5653 2.86957C16.9566 3.73913 16.6088 4.95652 16.6088 6.52174V7.65217C16.6088 9.21739 16.9566 10.4348 17.6522 11.3043C18.3479 12.1739 19.3044 12.6957 20.5218 12.6957C21.2175 12.6957 21.8262 12.6087 22.2609 12.4348C22.7827 12.2609 23.2175 12 23.4783 11.6522V8.52174H20.3479V7.04348H25.3044V12V12Z" fill="#2F4966"/>
<path d="M35.3912 13.826H33.6521V2.26078L30.1738 3.56513V1.99991L35.1304 0.173828H35.3912V13.826Z" fill="#2F4966"/>
<path d="M37.2173 12.8696C37.2173 12.6088 37.3042 12.3479 37.4782 12.087C37.6521 11.9131 37.9129 11.8262 38.2608 11.8262C38.6086 11.8262 38.8695 11.9131 39.0434 12.087C39.2173 12.261 39.3042 12.5218 39.3042 12.8696C39.3042 13.1305 39.2173 13.3914 39.0434 13.5653C38.8695 13.7392 38.6086 13.8262 38.2608 13.8262C37.9129 13.8262 37.6521 13.7392 37.4782 13.5653C37.3042 13.3914 37.2173 13.1305 37.2173 12.8696Z" fill="#2F4966"/>
<path d="M48.1306 8C48.1306 10 47.7828 11.5652 47.0871 12.5217C46.3915 13.4783 45.348 14 43.8698 14C42.3915 14 41.348 13.4783 40.6524 12.5217C39.9567 11.5652 39.6089 10.087 39.6089 8.17391V5.91304C39.6089 3.91304 39.9567 2.43478 40.6524 1.47826C41.348 0.521739 42.3915 0 43.8698 0C45.348 0 46.3915 0.434783 47.0871 1.3913C47.7828 2.34783 48.1306 3.73913 48.1306 5.73913V8ZM46.3915 5.65217C46.3915 4.17391 46.2176 3.13043 45.7828 2.43478C45.348 1.73913 44.7393 1.3913 43.8698 1.3913C43.0002 1.3913 42.3045 1.73913 41.9567 2.34783C41.5219 3.04348 41.348 4 41.348 5.3913V8.17391C41.348 9.65217 41.5219 10.6957 41.9567 11.3913C42.3915 12.087 43.0002 12.4348 43.8698 12.4348C44.7393 12.4348 45.348 12.087 45.7828 11.4783C46.2176 10.7826 46.3915 9.73913 46.3915 8.34783V5.65217Z" fill="#2F4966"/>
</svg>
