<svg id="Camada_1" data-name="Camada 1" xmlns="http://www.w3.org/2000/svg" viewBox="0 0 37.36 14"><defs><style>.cls-1{fill:#211915;}</style></defs><title>raios-earth-networks-pulse</title><path class="cls-1" d="M410.13,292.5h7.12a.87.87,0,0,1,.58.22.74.74,0,0,1,.24.56.69.69,0,0,1-.24.55.86.86,0,0,1-.58.21h-6.44l.18-.34v5.06l-.2-.22h5.56a.87.87,0,0,1,.58.22.74.74,0,0,1,.24.56.69.69,0,0,1-.24.55.86.86,0,0,1-.58.21h-5.5l.14-.18v5.18l-.12-.14h6.38a.8.8,0,0,1,.58.24.78.78,0,0,1,.24.54.71.71,0,0,1-.24.56.82.82,0,0,1-.58.22h-7.12a.75.75,0,0,1-.57-.24.78.78,0,0,1-.23-.58V293.3a.79.79,0,0,1,.8-.8Z" transform="translate(-409.33 -292.5)"/><path class="cls-1" d="M432.09,292.5a.73.73,0,0,1,.54.21.76.76,0,0,1,.2.53v12.42a.79.79,0,0,1-.24.61.81.81,0,0,1-.58.23.92.92,0,0,1-.36-.07.58.58,0,0,1-.28-.19l-8.57-11.32.41-.24v11.08a.71.71,0,0,1-.21.53.75.75,0,0,1-.55.21.67.67,0,0,1-.52-.21.7.7,0,0,1-.2-.53V293.3a.75.75,0,0,1,.23-.58.78.78,0,0,1,.55-.22,1.33,1.33,0,0,1,.37.07.7.7,0,0,1,.29.21l8.44,11.16-.26.32v-11a.69.69,0,0,1,.21-.53A.71.71,0,0,1,432.09,292.5Z" transform="translate(-409.33 -292.5)"/><path class="cls-1" d="M442.81,292.5a3.73,3.73,0,0,1,2,.54,4,4,0,0,1,1.39,1.48,4.42,4.42,0,0,1,.51,2.14,4.48,4.48,0,0,1-.51,2.14,4,4,0,0,1-1.39,1.52,3.57,3.57,0,0,1-2,.56h-4.07l.15-.24v5a.85.85,0,0,1-.22.58.74.74,0,0,1-.56.24.7.7,0,0,1-.57-.24.84.84,0,0,1-.21-.58V293.3a.8.8,0,0,1,.22-.57.82.82,0,0,1,.58-.23Zm0,6.84A2,2,0,0,0,444,299a2.52,2.52,0,0,0,.8-1,3,3,0,0,0,.3-1.34,2.91,2.91,0,0,0-.3-1.34,2.68,2.68,0,0,0-.8-.93,2,2,0,0,0-1.16-.35h-4.07l.15-.22v5.72l-.15-.2Z" transform="translate(-409.33 -292.5)"/></svg>