<?xml version="1.0" encoding="utf-8"?>
<!-- Generator: Adobe Illustrator 23.0.1, SVG Export Plug-In . SVG Version: 6.00 Build 0)  -->
<svg version="1.2" baseProfile="tiny" id="Camada_1"
	 xmlns="http://www.w3.org/2000/svg" xmlns:xlink="http://www.w3.org/1999/xlink" x="0px" y="0px" viewBox="0 0 16 16"
	 xml:space="preserve">
<path d="M8,1c0.5,0,0.9,0.4,0.9,0.9v5.3h5.3C14.6,7.1,15,7.5,15,8c0,0.5-0.4,0.9-0.9,0.9H8.9v5.3C8.9,14.6,8.5,15,8,15
	c-0.5,0-0.9-0.4-0.9-0.9V8.9H1.9C1.4,8.9,1,8.5,1,8c0-0.5,0.4-0.9,0.9-0.9h5.3V1.9C7.1,1.4,7.5,1,8,1z"/>
</svg>
