<svg id="objects" xmlns="http://www.w3.org/2000/svg" viewBox="0 0 14.03 14"><defs><style>.cls-1{fill:#383e4b;}</style></defs><title>seta-deslocamento3</title><path class="cls-1" d="M4.43,4.71a.32.32,0,0,1,.13,0l8.66,2.56a.43.43,0,0,1,.2.12.4.4,0,0,1,.11.19.44.44,0,0,1-.13.4L12,9.38l-.35.35.35.35L17,15a.37.37,0,0,1,.09.27.58.58,0,0,1-.17.35l-2,2a.31.31,0,0,1-.24.12.42.42,0,0,1-.28-.14L9.46,12.64l-.35-.35-.36.35L7.27,14.12a.41.41,0,0,1-.3.14H6.89a.39.39,0,0,1-.3-.29L4,5.28a.47.47,0,0,1,.12-.45.4.4,0,0,1,.29-.12m0-.5a.9.9,0,0,0-.64.26,1,1,0,0,0-.25.94l2.57,8.7a.89.89,0,0,0,.65.62l.21,0a.94.94,0,0,0,.66-.28L9.11,13,14,17.92a.92.92,0,0,0,.64.29.88.88,0,0,0,.6-.26l2-2a1,1,0,0,0,.07-1.33L12.37,9.73l1.39-1.38A.91.91,0,0,0,14,7.48a.88.88,0,0,0-.24-.43,1,1,0,0,0-.38-.23L4.7,4.25a.84.84,0,0,0-.27,0Z" transform="translate(-3.5 -4.21)"/></svg>