<svg id="Camada_1" data-name="Camada 1" xmlns="http://www.w3.org/2000/svg" viewBox="0 0 39.3 14"><defs><style>.cls-1{fill:#211915;}</style></defs><title>raios-rindat</title><path class="cls-1" d="M401.75,305a1,1,0,0,1-.65-.24.76.76,0,0,1-.27-.58V291.78a.78.78,0,0,1,.23-.57.74.74,0,0,1,.57-.23h5.52a4,4,0,0,1,2,.51,3.77,3.77,0,0,1,1.43,1.4,3.84,3.84,0,0,1,.53,2.05,3.77,3.77,0,0,1-.32,1.57,3.82,3.82,0,0,1-.88,1.26,4,4,0,0,1-1.28.81l-.44-.32a3,3,0,0,1,1.22.57,3.19,3.19,0,0,1,.88,1,3.13,3.13,0,0,1,.36,1.47c0,.49.06.88.1,1.18a2.44,2.44,0,0,0,.18.69,1.07,1.07,0,0,0,.34.39.83.83,0,0,1,.37.48.69.69,0,0,1-.45.83,1.32,1.32,0,0,1-.44,0,1.06,1.06,0,0,1-.38-.12,2.47,2.47,0,0,1-.62-.53,3,3,0,0,1-.5-1,6.57,6.57,0,0,1-.2-1.8,2.36,2.36,0,0,0-.2-1.06,1.74,1.74,0,0,0-.54-.68,1.78,1.78,0,0,0-.76-.36,3.55,3.55,0,0,0-.86-.1h-4.46l.24-.36v5.22a.91.91,0,0,1-.2.58A.66.66,0,0,1,401.75,305Zm.5-7.12h4.9a2.14,2.14,0,0,0,1.09-.4,2.73,2.73,0,0,0,.84-1,3.24,3.24,0,0,0,.33-1.47,2.41,2.41,0,0,0-.67-1.76,2.23,2.23,0,0,0-1.69-.7h-4.72l.16-.38v6.08Z" transform="translate(-400.83 -290.98)"/><path class="cls-1" d="M421.15,291a5.65,5.65,0,0,1,2.57.55,5,5,0,0,1,1.85,1.53,6.58,6.58,0,0,1,1.11,2.25,9.31,9.31,0,0,1,.37,2.67,9.07,9.07,0,0,1-.66,3.51,5.86,5.86,0,0,1-2,2.54,5.42,5.42,0,0,1-3.28,1h-5a.76.76,0,0,1-.57-.24.83.83,0,0,1-.23-.58V291.78a.78.78,0,0,1,.23-.57.75.75,0,0,1,.57-.23Zm-.2,12.44a4,4,0,0,0,2.51-.74,4.29,4.29,0,0,0,1.42-2,8,8,0,0,0,.45-2.72,8.27,8.27,0,0,0-.25-2.07,5.17,5.17,0,0,0-.78-1.75,3.67,3.67,0,0,0-1.36-1.2,4.09,4.09,0,0,0-2-.44h-4.1l.16-.16v11.26l-.12-.2Z" transform="translate(-400.83 -290.98)"/><path class="cls-1" d="M430,292.5a.84.84,0,0,1-.57-.21.73.73,0,0,1-.23-.55.72.72,0,0,1,.23-.55A.84.84,0,0,1,430,291h9.3a.84.84,0,0,1,.58.21.76.76,0,0,1,0,1.11.89.89,0,0,1-.58.2ZM434.65,305a.81.81,0,0,1-.6-.24.8.8,0,0,1-.24-.58V291.8h1.7v12.36a.8.8,0,0,1-.24.58A.83.83,0,0,1,434.65,305Z" transform="translate(-400.83 -290.98)"/></svg>