<svg id="Camada_2" data-name="Camada 2" xmlns="http://www.w3.org/2000/svg" viewBox="0 0 106.8 95.31"><title>apagar</title><path d="M74.34,103.36h71.9a3.53,3.53,0,0,1,3.76,3.56c0,2.79-2,3.57-3.81,3.57H74.34Z" transform="translate(-43.2 -15.17)"/><path d="M96.39,19.34a14.24,14.24,0,0,1,20.14,0L144.17,47a14.26,14.26,0,0,1,0,20.15L105,106.31a14.29,14.29,0,0,1-10.07,4.18H75.25a14.31,14.31,0,0,1-10.07-4.18L47.37,88.5a14.26,14.26,0,0,1,0-20.15l49-49Zm15.11,5a7.13,7.13,0,0,0-10.08,0l-33,33,37.7,37.71,33-33a7.12,7.12,0,0,0,0-10.07Zm-10.41,75.75L63.38,62.43l-11,11a7.12,7.12,0,0,0,0,10.07l17.81,17.81a7.12,7.12,0,0,0,5,2.09H94.92a7.08,7.08,0,0,0,5-2.09l1.14-1.14Z" transform="translate(-43.2 -15.17)"/></svg>