<svg width="21" height="14" viewBox="0 0 21 14" fill="none" xmlns="http://www.w3.org/2000/svg">
<path d="M10.5875 1.66279H6.2125V13.9128H4.375V1.66279H0V0.175293H10.5875V1.66279Z" fill="#2F4966"/>
<path d="M15.925 7.7875C14.35 7.35 13.2125 6.825 12.5125 6.125C11.8125 5.5125 11.4625 4.6375 11.4625 3.7625C11.4625 2.7125 11.9 1.75 12.775 1.05C13.65 0.35 14.7875 0 16.1 0C17.0625 0 17.85 0.175 18.6375 0.525C19.3375 0.875 19.95 1.4 20.3875 2.0125C20.7375 2.7125 21 3.4125 21 4.1125H19.1625C19.1625 3.325 18.9 2.625 18.375 2.1875C17.85 1.75 17.0625 1.4875 16.1875 1.4875C15.3125 1.4875 14.6125 1.6625 14.0875 2.1C13.5625 2.45 13.3 3.0625 13.3 3.7625C13.3 4.2875 13.5625 4.8125 14 5.1625C14.4375 5.5125 15.3125 5.8625 16.45 6.2125C17.5875 6.5625 18.4625 6.9125 19.1625 7.2625C19.775 7.6125 20.3 8.1375 20.5625 8.575C20.9125 9.1 21 9.7125 21 10.4125C21 11.55 20.5625 12.425 19.6875 13.0375C18.8125 13.65 17.675 14 16.1875 14C15.225 14 14.35 13.825 13.5625 13.475C12.775 13.125 12.1625 12.6 11.6375 11.9875C11.2 11.375 10.9375 10.675 10.9375 9.8875H12.775C12.775 10.675 13.0375 11.375 13.65 11.8125C14.2625 12.25 15.05 12.5125 16.1 12.5125C17.0625 12.5125 17.7625 12.3375 18.2875 11.9C18.8125 11.55 19.075 11.025 19.075 10.325C19.075 9.625 18.8125 9.1 18.375 8.75C17.9375 8.4 17.15 8.1375 15.925 7.7875Z" fill="#2F4966"/>
</svg>
