<svg id="Camada_1" data-name="Camada 1" xmlns="http://www.w3.org/2000/svg" viewBox="0 0 35.25 14"><defs><style>.cls-1{fill:#211915;}</style></defs><title>radar-teixeirasoares</title><path class="cls-1" d="M410.76,294a.75.75,0,0,1-.55-.21.67.67,0,0,1-.23-.53.71.71,0,0,1,.23-.54.79.79,0,0,1,.55-.2h9a.88.88,0,0,1,.57.2.71.71,0,0,1,.23.54.68.68,0,0,1-.23.54.88.88,0,0,1-.57.2Zm4.51,12.13a.8.8,0,0,1-.58-.23.78.78,0,0,1-.24-.57v-12h1.66v12a.78.78,0,0,1-.24.57A.81.81,0,0,1,415.27,306.13Z" transform="translate(-409.98 -292.33)"/><path class="cls-1" d="M423.65,306.21a.76.76,0,0,1-.72-.68.88.88,0,0,1,.2-.53l4.29-5.85.84,1.28-4,5.43A.71.71,0,0,1,423.65,306.21Zm.08-13.75a.74.74,0,0,1,.64.33l9,12.16a.79.79,0,0,1,.16.48.76.76,0,0,1-.25.57.83.83,0,0,1-.53.21.77.77,0,0,1-.64-.33l-9-12.17a.71.71,0,0,1-.16-.47.7.7,0,0,1,.25-.55A.75.75,0,0,1,423.73,292.46Zm9.1,0a.72.72,0,0,1,.52.22.67.67,0,0,1,.22.48.8.8,0,0,1-.18.49l-4.27,5.77-.88-1.22,4-5.37A.75.75,0,0,1,432.83,292.46Z" transform="translate(-409.98 -292.33)"/><path class="cls-1" d="M440.65,306.33a7,7,0,0,1-2.53-.43,6.79,6.79,0,0,1-2.1-1.36,1.33,1.33,0,0,1-.23-.3.86.86,0,0,1-.08-.36.79.79,0,0,1,.22-.56.74.74,0,0,1,.55-.24.67.67,0,0,1,.49.21,5.67,5.67,0,0,0,1.64,1.13,4.92,4.92,0,0,0,2,.39,4.18,4.18,0,0,0,1.54-.27,2.71,2.71,0,0,0,1.1-.76,1.71,1.71,0,0,0,.41-1.13,1.94,1.94,0,0,0-.46-1.28,3.35,3.35,0,0,0-1.2-.85,9.32,9.32,0,0,0-1.78-.57,10.3,10.3,0,0,1-1.65-.53,4.94,4.94,0,0,1-1.29-.76,3.27,3.27,0,0,1-.84-1.11,3.66,3.66,0,0,1-.3-1.53,3.27,3.27,0,0,1,.58-1.94,3.8,3.8,0,0,1,1.61-1.3,5.89,5.89,0,0,1,2.37-.45,6.73,6.73,0,0,1,2.25.38,4.39,4.39,0,0,1,1.7,1.07,1,1,0,0,1,.39.72.75.75,0,0,1-.24.54.79.79,0,0,1-.56.24.6.6,0,0,1-.39-.15,3.33,3.33,0,0,0-.83-.67,5,5,0,0,0-1.11-.46,4.17,4.17,0,0,0-1.21-.18,4.23,4.23,0,0,0-1.57.27,2.39,2.39,0,0,0-1.06.73,1.8,1.8,0,0,0-.38,1.14,1.73,1.73,0,0,0,.43,1.22,3.24,3.24,0,0,0,1.14.78,13.64,13.64,0,0,0,1.6.53,17.52,17.52,0,0,1,1.76.53,5.24,5.24,0,0,1,1.39.75,3,3,0,0,1,.9,1.14,3.94,3.94,0,0,1,.32,1.7,3.19,3.19,0,0,1-.6,1.91,4.14,4.14,0,0,1-1.64,1.31A5.9,5.9,0,0,1,440.65,306.33Z" transform="translate(-409.98 -292.33)"/></svg>