<svg id="Camada_2" data-name="Camada 2" xmlns="http://www.w3.org/2000/svg" viewBox="0 0 14 14"><title>tempestade-raios</title><path d="M1.76.25A.35.35,0,0,1,2.1,0H4.9a.35.35,0,0,1,.35.35.43.43,0,0,1,0,.11L4,4.2H6.65A.35.35,0,0,1,7,4.55a.38.38,0,0,1-.07.21L2,11.06a.34.34,0,0,1-.49.07.33.33,0,0,1-.12-.38l1.26-4.1H.35A.35.35,0,0,1,0,6.3a.34.34,0,0,1,0-.1Zm.6.45L.82,6H3.15a.34.34,0,0,1,.33.45L2.65,9.13,5.93,4.9H3.5a.35.35,0,0,1-.35-.35.36.36,0,0,1,0-.11L4.41.7Z" transform="translate(0)"/><path d="M8.77,3.06a.34.34,0,0,1,.33-.25h2.8a.35.35,0,0,1,.35.35.52.52,0,0,1,0,.11L11,7h2.66a.35.35,0,0,1,.35.35.41.41,0,0,1-.07.22L9,13.86a.34.34,0,0,1-.49.07.35.35,0,0,1-.12-.38l1.26-4.1H7.35A.35.35,0,0,1,7,9.1.44.44,0,0,1,7,9Zm.59.45L7.82,8.75h2.33a.35.35,0,0,1,.35.35.41.41,0,0,1,0,.11l-.84,2.72L12.94,7.7H10.5a.35.35,0,0,1-.35-.35.52.52,0,0,1,0-.11l1.25-3.73Z" transform="translate(0)"/></svg>