<svg id="Camada_1" data-name="Camada 1" xmlns="http://www.w3.org/2000/svg" viewBox="0 0 36.4 14"><defs><style>.cls-1{fill:#040006;}</style></defs><title>radar-cascavel</title><path class="cls-1" d="M412.83,292.1a.66.66,0,0,1,.38.52.8.8,0,0,1-.18.64.62.62,0,0,1-.45.28,1.06,1.06,0,0,1-.54-.12,6.1,6.1,0,0,0-1.38-.61,5.35,5.35,0,0,0-1.56-.23,5.53,5.53,0,0,0-2.1.4,4.87,4.87,0,0,0-1.65,1.12,5.06,5.06,0,0,0-1.09,1.71,5.94,5.94,0,0,0-.39,2.2,6.11,6.11,0,0,0,.41,2.29A4.88,4.88,0,0,0,405.4,302a4.55,4.55,0,0,0,1.65,1.08,5.49,5.49,0,0,0,2.05.37,5.39,5.39,0,0,0,2.94-.84.94.94,0,0,1,.54-.09.74.74,0,0,1,.47.27.84.84,0,0,1,.17.65.66.66,0,0,1-.37.5,7.52,7.52,0,0,1-1.1.53,8.1,8.1,0,0,1-1.3.38,6.72,6.72,0,0,1-1.35.14,7.08,7.08,0,0,1-2.64-.49,6.57,6.57,0,0,1-3.71-3.61,7.28,7.28,0,0,1-.55-2.9,7.17,7.17,0,0,1,.52-2.78,6.54,6.54,0,0,1,1.47-2.2,6.86,6.86,0,0,1,4.91-2,7.26,7.26,0,0,1,2,.27A6.37,6.37,0,0,1,412.83,292.1Z" transform="translate(-402.2 -291.01)"/><path class="cls-1" d="M421.25,293.22l-4.57,11.13a.72.72,0,0,1-.27.37.69.69,0,0,1-.41.13.7.7,0,0,1-.54-.19.67.67,0,0,1-.18-.47.6.6,0,0,1,0-.29l5-12.25a.73.73,0,0,1,.3-.4.81.81,0,0,1,.46-.11.77.77,0,0,1,.45.14.71.71,0,0,1,.29.37l5,12.13a.89.89,0,0,1,.06.31.72.72,0,0,1-.23.56.81.81,0,0,1-.53.2.72.72,0,0,1-.42-.13.85.85,0,0,1-.3-.39l-4.63-11.13Zm-3.59,8,.66-1.52h5.77l.29,1.52Z" transform="translate(-402.2 -291.01)"/><path class="cls-1" d="M434,305a6.28,6.28,0,0,1-4.63-1.79,1.29,1.29,0,0,1-.22-.3.74.74,0,0,1-.09-.36.82.82,0,0,1,.23-.56.71.71,0,0,1,1,0A5.36,5.36,0,0,0,432,303.1a4.87,4.87,0,0,0,2,.39,4.24,4.24,0,0,0,1.55-.27,2.78,2.78,0,0,0,1.1-.76,1.7,1.7,0,0,0,.4-1.13,2,2,0,0,0-.45-1.28,3.49,3.49,0,0,0-1.21-.85,10.67,10.67,0,0,0-1.78-.57,10.51,10.51,0,0,1-1.64-.53,4.78,4.78,0,0,1-1.29-.76,3.17,3.17,0,0,1-.85-1.11,3.66,3.66,0,0,1-.3-1.53,3.29,3.29,0,0,1,.58-1.94,3.83,3.83,0,0,1,1.62-1.3,5.83,5.83,0,0,1,2.37-.45,6.39,6.39,0,0,1,2.24.39,4.2,4.2,0,0,1,1.7,1.07,1,1,0,0,1,.39.72.74.74,0,0,1-.24.53.77.77,0,0,1-.55.24.58.58,0,0,1-.39-.15,3.15,3.15,0,0,0-.84-.66,4.81,4.81,0,0,0-1.11-.47,4.16,4.16,0,0,0-1.2-.18,4.29,4.29,0,0,0-1.58.27,2.44,2.44,0,0,0-1.06.74,1.75,1.75,0,0,0-.38,1.13,1.78,1.78,0,0,0,.43,1.22,3.16,3.16,0,0,0,1.15.78,11.84,11.84,0,0,0,1.59.53,16,16,0,0,1,1.76.54,5.36,5.36,0,0,1,1.39.74,3.09,3.09,0,0,1,.91,1.14,4.09,4.09,0,0,1,.32,1.7,3.19,3.19,0,0,1-.6,1.91,4.08,4.08,0,0,1-1.65,1.31A5.82,5.82,0,0,1,434,305Z" transform="translate(-402.2 -291.01)"/></svg>