<svg width="21" height="20" viewBox="0 0 21 20" fill="none" xmlns="http://www.w3.org/2000/svg">
<g clip-path="url(#clip0_452_2253)">
<path d="M0.00629147 7.92214C0.00629147 7.92214 -0.088167 5.24582 2.05289 2.77731C3.94836 0.762194 5.60453 0.176552 7.64483 0.012824C8.69017 -0.0501482 11.8325 -0.0501482 14.3703 2.7899C14.3703 2.7899 16.272 4.86799 16.4169 7.94104H15.3841C15.3841 7.94104 15.466 5.54809 13.3879 3.23701C11.7254 1.51156 9.57178 1.03298 8.21158 1.03298C7.50629 1.03298 5.03778 1.26597 3.15491 3.11106C1.08941 5.10728 1.02644 7.75842 1.02644 8.22441C1.02644 11.373 3.28085 15.0695 7.9408 15.3907C7.9408 15.3907 7.92821 15.9133 7.92821 16.4234C3.6146 16.266 -0.176328 12.5821 0.00629147 7.92214Z" fill="#E0A90E"/>
<path d="M7.98489 8.96094L10.2015 16.4672C10.2834 16.738 10.4849 16.9332 10.7557 17.0025C11.0264 17.0718 11.3035 16.9836 11.505 16.7821L12.7834 15.5038L17.034 19.7544C17.3426 20.063 17.7834 20.0818 18.0982 19.7733L19.7922 18.0793C20.1008 17.7708 20.17 17.2418 19.8552 16.9332L15.6045 12.6826L16.801 11.4861C17.0025 11.2846 17.0907 11.0075 17.0214 10.7368C16.9836 10.5982 16.9207 10.4723 16.8199 10.3778C16.7254 10.2834 16.6121 10.2204 16.4861 10.1826L8.97985 7.96598C8.70277 7.88411 8.4005 7.95968 8.19269 8.16749C7.98489 8.3753 7.89672 8.68386 7.98489 8.96094Z" fill="#2F4966"/>
<path d="M2.63854 8.02283C2.63854 8.02283 2.66373 6.13996 4.06171 4.52787C5.29597 3.21804 6.51763 2.76464 7.84635 2.65759C9.04282 2.60721 10.6927 2.58832 12.4181 4.53416C12.4181 4.53416 13.6776 5.94474 13.772 8.03542H12.8904C12.8904 8.03542 12.7897 6.19663 11.5932 4.96867C10.5101 3.84777 9.10579 3.5329 8.22418 3.5329C7.76448 3.5329 6.15869 3.68404 4.93073 4.88681C3.58312 6.18404 3.54534 7.91578 3.54534 8.21804C3.54534 10.2709 5.01259 12.6765 8.04786 12.8843C8.04786 12.8843 8.04156 13.407 8.04156 13.7407C5 13.747 2.51889 11.0581 2.63854 8.02283Z" fill="#E0A90E"/>
</g>
<defs>
<clipPath id="clip0_452_2253">
<rect width="20.063" height="20" fill="white"/>
</clipPath>
</defs>
</svg>
