<?xml version="1.0" encoding="utf-8"?>
<!-- Generator: Adobe Illustrator 23.0.1, SVG Export Plug-In . SVG Version: 6.00 Build 0)  -->
<svg version="1.1" id="Camada_1" xmlns="http://www.w3.org/2000/svg" xmlns:xlink="http://www.w3.org/1999/xlink" x="0px" y="0px"
	 viewBox="0 0 410.8 463.8" style="enable-background:new 0 0 410.8 463.8;" xml:space="preserve">
<path d="M57.1,406.4c-2.9,0-10.2,2.4-10.2,11.7c0,11,10.2,11,10.2,11h181.8c0,0,10.7,0.6,10.7-11.4c0-12-13.1-11.4-13.1-11.4h-34.8
	l-13.1-47.7c0,0-38.3-1.7-71.6-31.4l-22.4,79.3C94.7,406.6,58.9,406.4,57.1,406.4z"/>
<path d="M287.7,296.4c0,12.9-39.9,41.1-82.2,41.1c-20.5,0-64.1-3.6-97.1-53.6c0,0-16.3-22.7-16.3-61.6s29.1-80.6,40.2-80.6
	c0,0,4.6-0.2,10.3,5.3c5.7,5.5,62.2,62.4,62.2,62.4l27.2-27.7l16.1,16.1l-27.9,27.6l62.8,61.7C282.9,287.2,288.6,292.7,287.7,296.4z
	"/>
<circle cx="260.8" cy="169" r="33.8"/>
<path d="M300.5,128.8c0,0-13.5-16.3-40.9-16.3c-0.5,0-10-0.6-10-11.3S260.8,90,260.8,90s25.5-2.4,49.5,17.1c0,0,29.4,24.1,29.4,58.8
	c0,0,0.7,14.1-11.2,14.1c-13.1,0-11.9-13.3-11.9-15.5C316.5,162.2,317.7,147.7,300.5,128.8z"/>
<path d="M260.8,67.6c0,0-11.2,0-11.2-11.2s10.6-11.2,11.2-11.2s47.7-2.7,88.1,36.5c0,0,35.8,34.4,35.8,85.8c0,0,0.4,12.5-10.7,12.5
	c-11.1,0-12.6-10.4-12.6-13.7c0-3.3-0.5-38.1-21.7-61C318.4,82.5,297.7,69.1,260.8,67.6z"/>
</svg>
