<svg id="Camada_1" data-name="Camada 1" xmlns="http://www.w3.org/2000/svg" viewBox="0 0 14 14"><title>acumulo-chuva</title><path d="M9.4,2.78A.47.47,0,0,1,9,3.05H7.62v6.1a.61.61,0,0,1-1.22,0V3.05H5a.48.48,0,0,1-.42-.27.46.46,0,0,1,.09-.5l2-2.13a.45.45,0,0,1,.67,0l2,2.13A.41.41,0,0,1,9.4,2.78Z" transform="translate(0 0)"/><path d="M0,10A.44.44,0,0,1,.6,9.79l1.54.62a1.35,1.35,0,0,0,1,0L4,10.05a2.26,2.26,0,0,1,1.62,0l.89.36a1.35,1.35,0,0,0,1,0l.89-.36a2.26,2.26,0,0,1,1.62,0l.89.36a1.38,1.38,0,0,0,1,0l1.53-.62A.45.45,0,0,1,14,10a.44.44,0,0,1-.24.57h0l-1.54.61a2.16,2.16,0,0,1-1.62,0l-.89-.35a1.28,1.28,0,0,0-1,0l-.88.35a2.19,2.19,0,0,1-1.63,0l-.88-.35a1.28,1.28,0,0,0-1,0l-.89.35a2.16,2.16,0,0,1-1.62,0L.27,10.61A.44.44,0,0,1,0,10Zm0,2.62a.44.44,0,0,1,.57-.24L2.14,13a1.26,1.26,0,0,0,1,0L4,12.68a2.16,2.16,0,0,1,1.62,0l.89.35a1.26,1.26,0,0,0,1,0l.89-.35a2.16,2.16,0,0,1,1.62,0l.89.35a1.28,1.28,0,0,0,1,0l1.53-.61a.44.44,0,0,1,.58.23.43.43,0,0,1-.24.57h0l-1.54.61a2.16,2.16,0,0,1-1.62,0l-.89-.35a1.28,1.28,0,0,0-1,0l-.88.35a2.19,2.19,0,0,1-1.63,0l-.88-.35a1.28,1.28,0,0,0-1,0l-.89.35a2.16,2.16,0,0,1-1.62,0L.27,13.23A.44.44,0,0,1,0,12.66Z" transform="translate(0 0)"/></svg>