<svg width="29" height="14" viewBox="0 0 29 14" fill="none" xmlns="http://www.w3.org/2000/svg">
<path d="M5.8625 11.4628L9.8 0.175293H11.8125L6.65 13.9128H5.075L0 0.175293H1.925L5.8625 11.4628Z" fill="#2F4966"/>
<path d="M16.0334 13.9128H14.1959V0.175293H16.0334V13.9128Z" fill="#2F4966"/>
<path d="M23.842 7.7875C22.267 7.35 21.1295 6.825 20.4295 6.125C19.7295 5.5125 19.3795 4.6375 19.3795 3.7625C19.3795 2.7125 19.817 1.75 20.692 1.05C21.567 0.35 22.7045 0 24.017 0C24.9795 0 25.767 0.175 26.5545 0.525C27.2545 0.875 27.867 1.4 28.3045 2.0125C28.742 2.625 28.917 3.325 28.917 4.1125H27.0795C27.0795 3.325 26.817 2.625 26.292 2.1875C25.767 1.75 24.9795 1.4875 24.1045 1.4875C23.2295 1.4875 22.5295 1.6625 22.0045 2.1C21.4795 2.45 21.217 3.0625 21.217 3.7625C21.217 4.2875 21.4795 4.8125 21.917 5.1625C22.3545 5.5125 23.2295 5.8625 24.367 6.2125C25.5045 6.5625 26.3795 6.9125 27.0795 7.2625C27.692 7.6125 28.217 8.1375 28.4795 8.575C28.8295 9.1 28.917 9.7125 28.917 10.4125C28.917 11.55 28.4795 12.425 27.6045 13.0375C26.7295 13.7375 25.592 14 24.1045 14C23.142 14 22.267 13.825 21.4795 13.475C20.692 13.125 20.0795 12.6 19.5545 11.9875C19.117 11.375 18.8545 10.675 18.8545 9.8875H20.692C20.692 10.675 20.9545 11.375 21.567 11.8125C22.1795 12.25 22.967 12.5125 24.017 12.5125C24.9795 12.5125 25.6795 12.3375 26.2045 11.9C26.7295 11.55 26.992 11.025 26.992 10.325C26.992 9.625 26.7295 9.1 26.292 8.75C25.8545 8.4 25.067 8.1375 23.842 7.7875Z" fill="#2F4966"/>
</svg>
