<svg id="Camada_2" data-name="Camada 2" xmlns="http://www.w3.org/2000/svg" viewBox="0 0 16 16"><title>gerenciamento-alertas</title><path d="M1.5,1a.5.5,0,0,0-.5.5v4A.5.5,0,0,1,.5,6,.5.5,0,0,1,0,5.5v-4A1.5,1.5,0,0,1,1.5,0h4A.5.5,0,0,1,6,.5a.5.5,0,0,1-.5.5ZM10,.5a.5.5,0,0,1,.5-.5h4A1.5,1.5,0,0,1,16,1.5v4a.5.5,0,0,1-1,0v-4a.5.5,0,0,0-.5-.5h-4A.5.5,0,0,1,10,.5ZM.5,10a.5.5,0,0,1,.5.5v4a.5.5,0,0,0,.5.5h4a.5.5,0,0,1,0,1h-4A1.5,1.5,0,0,1,0,14.5H0v-4A.5.5,0,0,1,.5,10Zm15,0a.5.5,0,0,1,.5.5v4A1.5,1.5,0,0,1,14.5,16h-4a.5.5,0,0,1,0-1h4a.5.5,0,0,0,.5-.5v-4A.5.5,0,0,1,15.5,10Z" transform="translate(0)"/><path d="M8.85,1.85a1.2,1.2,0,0,0-1.7,0l-5.3,5.3a1.2,1.2,0,0,0,0,1.7l5.3,5.3a1.2,1.2,0,0,0,1.7,0l5.3-5.3a1.2,1.2,0,0,0,0-1.7ZM8,4.75a.74.74,0,0,1,.73.81L8.45,8.41a.45.45,0,0,1-.9,0L7.27,5.56a.73.73,0,0,1,.66-.81ZM8,9.63a.81.81,0,1,1-.81.81A.81.81,0,0,1,8,9.63Z" transform="translate(0)"/></svg>