<svg id="Camada_1" data-name="Camada 1" xmlns="http://www.w3.org/2000/svg" viewBox="0 0 13.36 12.25"><title>ondas-de-frio_ok2</title><path d="M9.78,11.66a1.46,1.46,0,0,1-1.44-1.47A.31.31,0,0,0,8,9.9a.29.29,0,0,0-.29.29A2.06,2.06,0,1,0,9.81,8.13H2.75a.3.3,0,0,0-.24.35h0a.3.3,0,0,0,.24.24h7a1.47,1.47,0,1,1,0,2.94Z" transform="translate(0.02 0)"/><path d="M8.67,5.36s2.72.73,4.24-1.31c.07-.12.5.15.42.26S12,6.58,8.51,5.83C8.4,5.83,8.46,5.29,8.67,5.36Z" transform="translate(0.02 0)"/><path d="M1.65,8.67s1.78,2.18,4.21,1.46c.13,0,.32.42.18.46S3.62,11.6,1.24,9C1.15,8.9,1.52,8.5,1.65,8.67Z" transform="translate(0.02 0)"/><path d="M.76.39A.16.16,0,0,1,.92.55V.92L1.24.73a.17.17,0,0,1,.22.06h0A.16.16,0,0,1,1.4,1l-.32.18.32.18a.16.16,0,0,1,0,.22.16.16,0,0,1-.21.06L.87,1.46v.37a.16.16,0,0,1-.32,0V1.46l-.32.19A.15.15,0,0,1,0,1.59H0a.17.17,0,0,1,0-.21l.32-.18L.12,1a.17.17,0,0,1,0-.22A.16.16,0,0,1,.28.73L.6.91V.55A.16.16,0,0,1,.76.39Z" transform="translate(0.02 0)"/><path d="M.62,2.72a8.26,8.26,0,0,1,4.24-.78v.49a10.11,10.11,0,0,0-4,.7Z" transform="translate(0.02 0)"/><path d="M6.86,0A.17.17,0,0,1,7,.13V.5L7.34.35a.17.17,0,0,1,.22.06h0A.16.16,0,0,1,7.5.62L7.18.81,7.5,1a.16.16,0,0,1,0,.23.17.17,0,0,1-.14,0L7,1.13V1.5a.16.16,0,0,1-.32,0V1.13l-.36.14a.15.15,0,0,1-.2-.06h0a.17.17,0,0,1,0-.21h0L6.5.81,6.23.63a.16.16,0,0,1,0-.23h0A.16.16,0,0,1,6.34.35l.32.18V.13A.14.14,0,0,1,6.83,0h0Z" transform="translate(0.02 0)"/><rect x="5.36" y="1.93" width="0.51" height="0.51" rx="0.05"/><path d="M1,6.92a.16.16,0,0,1,.17.15h0V7.5l.32-.19a.17.17,0,0,1,.22.06h0a.16.16,0,0,1-.06.21l-.33.13.32.18a.16.16,0,0,1-.16.28L1.18,8v.36a.16.16,0,0,1-.32,0h0V8l-.32.18a.15.15,0,0,1-.2-.06.17.17,0,0,1,0-.21h0l.32-.18-.32-.2a.16.16,0,0,1,0-.22.16.16,0,0,1,.21-.06l.32.19V7.13a.16.16,0,0,1,.1-.2Z" transform="translate(0.02 0)"/><path d="M9.78,1.13A1.45,1.45,0,0,0,8.34,2.58a.31.31,0,0,1-.3.29.29.29,0,0,1-.29-.29A2.06,2.06,0,1,1,9.81,4.64H2.75a.31.31,0,0,1-.29-.3.29.29,0,0,1,.29-.29h7a1.47,1.47,0,1,0,0-2.94Z" transform="translate(0.02 0)"/></svg>