<svg width="19" height="20" viewBox="0 0 19 20" fill="none" xmlns="http://www.w3.org/2000/svg">
<path d="M6.25 15.625C6.24982 15.9687 6.15517 16.3057 5.97639 16.5993C5.79761 16.8928 5.54158 17.1316 5.23629 17.2895C4.93099 17.4474 4.58817 17.5183 4.24528 17.4945C3.9024 17.4707 3.57265 17.3532 3.29207 17.1547C3.01149 16.9562 2.79087 16.6843 2.65432 16.3689C2.51777 16.0535 2.47055 15.7066 2.51781 15.3662C2.56508 15.0257 2.70501 14.7048 2.92232 14.4385C3.13963 14.1723 3.42595 13.9708 3.75 13.8562V3.125C3.75 2.95924 3.81585 2.80027 3.93306 2.68306C4.05027 2.56585 4.20924 2.5 4.375 2.5C4.54076 2.5 4.69973 2.56585 4.81694 2.68306C4.93415 2.80027 5 2.95924 5 3.125V13.8562C5.36572 13.9856 5.68234 14.2251 5.90622 14.5419C6.13009 14.8587 6.2502 15.2371 6.25 15.625Z" fill="#2F4966"/>
<path d="M1.25 3.125C1.25 2.2962 1.57924 1.50134 2.16529 0.915291C2.75134 0.32924 3.5462 0 4.375 0C5.2038 0 5.99866 0.32924 6.58471 0.915291C7.17076 1.50134 7.5 2.2962 7.5 3.125V12.5625C8.10292 13.1779 8.51075 13.9575 8.67234 14.8037C8.83394 15.6499 8.74212 16.525 8.40838 17.3192C8.07465 18.1134 7.51386 18.7914 6.79633 19.2682C6.07881 19.745 5.23649 19.9994 4.375 19.9994C3.51351 19.9994 2.67119 19.745 1.95367 19.2682C1.23615 18.7914 0.67536 18.1134 0.341624 17.3192C0.0078892 16.525 -0.0839372 15.6499 0.0776598 14.8037C0.239257 13.9575 0.647084 13.1779 1.25 12.5625V3.125ZM4.375 1.25C3.87772 1.25 3.40081 1.44754 3.04918 1.79917C2.69755 2.15081 2.5 2.62772 2.5 3.125V13.1088L2.29125 13.2963C1.81947 13.7182 1.48691 14.2734 1.33759 14.8884C1.18827 15.5035 1.22923 16.1494 1.45504 16.7406C1.68085 17.3319 2.08087 17.8406 2.60217 18.1996C3.12347 18.5585 3.74146 18.7507 4.37438 18.7507C5.00729 18.7507 5.62529 18.5585 6.14659 18.1996C6.66788 17.8406 7.0679 17.3319 7.29372 16.7406C7.51953 16.1494 7.56048 15.5035 7.41116 14.8884C7.26184 14.2734 6.92929 13.7182 6.4575 13.2963L6.25 13.1075V3.125C6.25 2.62772 6.05246 2.15081 5.70083 1.79917C5.3492 1.44754 4.87228 1.25 4.375 1.25ZM10.625 2.5C10.7908 2.5 10.9497 2.56585 11.0669 2.68306C11.1842 2.80027 11.25 2.95924 11.25 3.125V4.375C11.25 4.54076 11.1842 4.69973 11.0669 4.81694C10.9497 4.93415 10.7908 5 10.625 5C10.4592 5 10.3003 4.93415 10.1831 4.81694C10.0659 4.69973 10 4.54076 10 4.375V3.125C10 2.95924 10.0659 2.80027 10.1831 2.68306C10.3003 2.56585 10.4592 2.5 10.625 2.5ZM15.9288 4.69625C16.0459 4.81345 16.1117 4.9724 16.1117 5.13812C16.1117 5.30385 16.0459 5.4628 15.9288 5.58L15.045 6.465C14.9276 6.58236 14.7685 6.64829 14.6025 6.64829C14.4365 6.64829 14.2774 6.58236 14.16 6.465C14.0426 6.34764 13.9767 6.18847 13.9767 6.0225C13.9767 5.85653 14.0426 5.69736 14.16 5.58L15.045 4.69625C15.1622 4.57908 15.3211 4.51326 15.4869 4.51326C15.6526 4.51326 15.8115 4.57908 15.9288 4.69625ZM10 6.875C10 6.70924 10.0659 6.55027 10.1831 6.43306C10.3003 6.31585 10.4592 6.25 10.625 6.25C11.6196 6.25 12.5734 6.64509 13.2767 7.34835C13.9799 8.05161 14.375 9.00544 14.375 10C14.375 10.9946 13.9799 11.9484 13.2767 12.6517C12.5734 13.3549 11.6196 13.75 10.625 13.75C10.4592 13.75 10.3003 13.6842 10.1831 13.5669C10.0659 13.4497 10 13.2908 10 13.125C10 12.9592 10.0659 12.8003 10.1831 12.6831C10.3003 12.5658 10.4592 12.5 10.625 12.5C11.288 12.5 11.9239 12.2366 12.3928 11.7678C12.8616 11.2989 13.125 10.663 13.125 10C13.125 9.33696 12.8616 8.70107 12.3928 8.23223C11.9239 7.76339 11.288 7.5 10.625 7.5C10.4592 7.5 10.3003 7.43415 10.1831 7.31694C10.0659 7.19973 10 7.04076 10 6.875ZM15.625 10C15.625 9.83424 15.6909 9.67527 15.8081 9.55806C15.9253 9.44085 16.0842 9.375 16.25 9.375H17.5C17.6658 9.375 17.8247 9.44085 17.9419 9.55806C18.0592 9.67527 18.125 9.83424 18.125 10C18.125 10.1658 18.0592 10.3247 17.9419 10.4419C17.8247 10.5592 17.6658 10.625 17.5 10.625H16.25C16.0842 10.625 15.9253 10.5592 15.8081 10.4419C15.6909 10.3247 15.625 10.1658 15.625 10ZM14.16 13.535C14.2181 13.4768 14.287 13.4306 14.363 13.3991C14.4389 13.3676 14.5203 13.3514 14.6025 13.3514C14.6847 13.3514 14.7661 13.3676 14.842 13.3991C14.918 13.4306 14.9869 13.4768 15.045 13.535L15.9288 14.42C16.0426 14.5379 16.1056 14.6958 16.1042 14.8596C16.1027 15.0235 16.037 15.1803 15.9211 15.2961C15.8053 15.412 15.6485 15.4777 15.4846 15.4792C15.3208 15.4806 15.1629 15.4176 15.045 15.3038L14.16 14.42C14.1018 14.3619 14.0556 14.293 14.0241 14.217C13.9926 14.1411 13.9764 14.0597 13.9764 13.9775C13.9764 13.8953 13.9926 13.8139 14.0241 13.738C14.0556 13.662 14.1018 13.5931 14.16 13.535ZM10.625 15C10.7908 15 10.9497 15.0658 11.0669 15.1831C11.1842 15.3003 11.25 15.4592 11.25 15.625V16.875C11.25 17.0408 11.1842 17.1997 11.0669 17.3169C10.9497 17.4342 10.7908 17.5 10.625 17.5C10.4592 17.5 10.3003 17.4342 10.1831 17.3169C10.0659 17.1997 10 17.0408 10 16.875V15.625C10 15.4592 10.0659 15.3003 10.1831 15.1831C10.3003 15.0658 10.4592 15 10.625 15Z" fill="#2F4966"/>
</svg>
