<svg xmlns="http://www.w3.org/2000/svg" viewBox="0 0 14 14"><title>ondas-de-calor</title><g id="Camada_2" data-name="Camada 2"><path d="M9.63,5.25A2.63,2.63,0,1,1,7,2.63,2.63,2.63,0,0,1,9.63,5.25ZM7,0a.33.33,0,0,1,.33.33V1.64a.33.33,0,1,1-.66,0V.33A.33.33,0,0,1,7,0ZM7,8.53a.33.33,0,0,1,.33.33v1.31a.33.33,0,1,1-.66,0V8.86A.33.33,0,0,1,7,8.53Zm5.25-3.28a.33.33,0,0,1-.33.33H10.61a.33.33,0,0,1,0-.66h1.31A.33.33,0,0,1,12.25,5.25Zm-8.53,0a.33.33,0,0,1-.33.33H2.08a.33.33,0,0,1,0-.66H3.39A.33.33,0,0,1,3.72,5.25Zm7-3.71a.32.32,0,0,1,0,.46l-.93.93a.33.33,0,0,1-.46-.46l.93-.93A.32.32,0,0,1,10.71,1.54Zm-6,6a.32.32,0,0,1,0,.46L3.75,9a.32.32,0,0,1-.46,0,.31.31,0,0,1,0-.45l.93-.93A.32.32,0,0,1,4.68,7.57Zm6,1.39a.32.32,0,0,1-.46,0L9.32,8a.32.32,0,0,1,0-.46.33.33,0,0,1,.45,0l.93.93A.32.32,0,0,1,10.71,9Zm-6-6a.32.32,0,0,1-.46,0L3.29,2a.33.33,0,1,1,.45-.47h0l.93.93a.32.32,0,0,1,0,.46Z" transform="translate(0)"/></g><g id="Camada_3" data-name="Camada 3"><path d="M.66,8.14a.16.16,0,0,1,.12.23L.48,9a.44.44,0,0,0,0,.39l.17.36a.68.68,0,0,1,0,.65l-.17.36a.44.44,0,0,0,0,.39l.17.36a.68.68,0,0,1,0,.65l-.17.35a.47.47,0,0,0,0,.4l.3.61a.16.16,0,0,1-.11.23.24.24,0,0,1-.29-.09h0L.08,13a.7.7,0,0,1,0-.66L.25,12a.44.44,0,0,0,0-.39l-.17-.36a.68.68,0,0,1,0-.65l.17-.36a.44.44,0,0,0,0-.39L.08,9.5a.68.68,0,0,1,0-.65l.3-.61A.23.23,0,0,1,.66,8.14Z" transform="translate(0)"/><path d="M2.82,9.58c.11,0,.16.11.12.18l-.31.48a.29.29,0,0,0,0,.31l.18.28a.49.49,0,0,1,0,.52l-.18.28a.29.29,0,0,0,0,.31l.18.28a.47.47,0,0,1,0,.51L2.63,13a.29.29,0,0,0,0,.31l.31.49c.05.07,0,.15-.12.18a.27.27,0,0,1-.28-.07h0l-.31-.49a.47.47,0,0,1,0-.51l.18-.28a.29.29,0,0,0,0-.31L2.23,12a.47.47,0,0,1,0-.51l.18-.28a.29.29,0,0,0,0-.31l-.18-.28a.49.49,0,0,1,0-.52l.31-.48A.25.25,0,0,1,2.82,9.58Z" transform="translate(0)"/><path d="M11.14,9.58c-.11,0-.17.11-.12.18l.3.48a.29.29,0,0,1,0,.31l-.17.28a.45.45,0,0,0,0,.52l.17.28a.29.29,0,0,1,0,.31l-.17.28a.44.44,0,0,0,0,.51l.17.28a.29.29,0,0,1,0,.31l-.3.49c0,.07,0,.15.11.18a.29.29,0,0,0,.29-.07h0l.3-.49a.44.44,0,0,0,0-.51l-.17-.28a.29.29,0,0,1,0-.31l.17-.28a.44.44,0,0,0,0-.51l-.17-.28a.29.29,0,0,1,0-.31l.17-.28a.45.45,0,0,0,0-.52l-.3-.48A.25.25,0,0,0,11.14,9.58Z" transform="translate(0)"/><path d="M13.34,8.14a.16.16,0,0,0-.12.23l.3.61a.44.44,0,0,1,0,.39l-.17.36a.68.68,0,0,0,0,.65l.17.36a.44.44,0,0,1,0,.39l-.17.36a.68.68,0,0,0,0,.65l.17.35a.47.47,0,0,1,0,.4l-.3.61a.16.16,0,0,0,.11.23.24.24,0,0,0,.29-.09h0l.3-.61a.7.7,0,0,0,0-.66L13.75,12a.44.44,0,0,1,0-.39l.17-.36a.68.68,0,0,0,0-.65l-.17-.36a.44.44,0,0,1,0-.39l.17-.36a.68.68,0,0,0,0-.65l-.3-.61A.23.23,0,0,0,13.34,8.14Z" transform="translate(0)"/><path d="M5.38,10.35c.11,0,.16.09.12.15l-.3.4a.19.19,0,0,0,0,.26l.17.23a.33.33,0,0,1,0,.42L5.2,12a.19.19,0,0,0,0,.26l.17.23a.33.33,0,0,1,0,.42l-.17.24a.18.18,0,0,0,0,.25l.3.4c0,.06,0,.13-.11.15a.31.31,0,0,1-.29-.06h0l-.31-.41a.33.33,0,0,1,0-.42L5,12.87a.21.21,0,0,0,0-.26l-.18-.23a.33.33,0,0,1,0-.42L5,11.73a.21.21,0,0,0,0-.26l-.18-.23a.33.33,0,0,1,0-.42l.31-.41A.34.34,0,0,1,5.38,10.35Z" transform="translate(0)"/><path d="M8.73,10.35c-.11,0-.17.09-.12.15l.3.4a.21.21,0,0,1,0,.26l-.17.23a.31.31,0,0,0,0,.42l.17.23a.21.21,0,0,1,0,.26l-.17.23a.31.31,0,0,0,0,.42l.17.24a.2.2,0,0,1,0,.25l-.3.4c0,.06,0,.13.11.15A.31.31,0,0,0,9,13.93H9l.3-.41a.31.31,0,0,0,0-.42l-.17-.23a.21.21,0,0,1,0-.26l.17-.23a.31.31,0,0,0,0-.42l-.17-.23a.21.21,0,0,1,0-.26l.17-.23a.31.31,0,0,0,0-.42L9,10.41A.35.35,0,0,0,8.73,10.35Z" transform="translate(0)"/></g></svg>