<svg id="Camada_1" data-name="Camada 1" xmlns="http://www.w3.org/2000/svg" viewBox="0 0 14 14"><title>chuvas-de-tempestade</title><path d="M11,9.45a.49.49,0,0,1,.31.63l-.5,1.5a.5.5,0,0,1-1-.28v0l.5-1.5A.5.5,0,0,1,11,9.45Z" transform="translate(0 0)"/><path d="M13,11a.49.49,0,0,1,.31.63l-.5,1.5a.5.5,0,0,1-1-.28v0l.5-1.5A.5.5,0,0,1,13,11Z" transform="translate(0 0)"/><path d="M2,9.45a.5.5,0,0,1,.32.63l-.5,1.5a.51.51,0,0,1-.62.34.5.5,0,0,1-.34-.62v0l.5-1.5A.5.5,0,0,1,2,9.45Z" transform="translate(0 0)"/><path d="M4,11a.5.5,0,0,1,.32.63l-.5,1.5a.51.51,0,0,1-.62.34.5.5,0,0,1-.34-.62v0l.5-1.5A.5.5,0,0,1,4,11Z" transform="translate(0 0)"/><path d="M11.73,3.53a4.38,4.38,0,0,0-8.32-.88,3.06,3.06,0,0,0-.7,6.08,2.06,2.06,0,0,0,.35,0H4.74c.12-.43.17-.57.26-.87H3.06a2.19,2.19,0,0,1,0-4.38,1.88,1.88,0,0,1,.53.07.44.44,0,0,0,.52-.29,3.5,3.5,0,0,1,6.8.71.45.45,0,0,0,.44.39h0a1.75,1.75,0,0,1,0,3.5H8.54l-.3.87h3.13a2.62,2.62,0,0,0,.36-5.22Z" transform="translate(0 0)"/><path d="M5.9,7a.22.22,0,0,1,.21-.16H7.89a.22.22,0,0,1,.22.22.15.15,0,0,1,0,.07L7.31,9.55H9a.22.22,0,0,1,.22.22.23.23,0,0,1,0,.14l-3.12,4a.22.22,0,0,1-.38-.2l.8-2.6H5a.22.22,0,0,1-.22-.22v-.07Z" transform="translate(0 0)"/></svg>