<svg id="Camada_1" data-name="Camada 1" xmlns="http://www.w3.org/2000/svg" viewBox="0 0 14 14"><title>alvo2</title><path d="M7,13.45A6.45,6.45,0,1,1,13.45,7,6.45,6.45,0,0,1,7,13.45ZM7,14A7,7,0,1,0,0,7a7,7,0,0,0,7,7Z" transform="translate(0 0)"/><path d="M7,11.15A4.15,4.15,0,1,1,11.14,7h0A4.15,4.15,0,0,1,7,11.15Zm0,.59A4.74,4.74,0,1,0,2.26,7,4.74,4.74,0,0,0,7,11.74Z" transform="translate(0 0)"/><path d="M7,8.83A1.85,1.85,0,1,1,8.85,7,1.85,1.85,0,0,1,7,8.83Zm0,.56A2.39,2.39,0,1,0,4.62,7h0A2.4,2.4,0,0,0,7,9.38Z" transform="translate(0 0)"/></svg>