<svg id="Camada_1" data-name="Camada 1" xmlns="http://www.w3.org/2000/svg" viewBox="0 0 29.61 14"><defs><style>.cls-1{fill:#040006;}</style></defs><title>vis</title><path class="cls-1" d="M417.36,291a.84.84,0,0,1,.57.21.67.67,0,0,1,.23.53,1,1,0,0,1-.08.35l-5.07,12a.93.93,0,0,1-.32.38.9.9,0,0,1-.44.13,1.07,1.07,0,0,1-.41-.15.74.74,0,0,1-.29-.36l-5.06-12-.06-.16a1.15,1.15,0,0,1,0-.19.68.68,0,0,1,.26-.57.79.79,0,0,1,1.27.34l4.65,11.08h-.45l4.49-11.12A.78.78,0,0,1,417.36,291Z" transform="translate(-406.42 -290.87)"/><path class="cls-1" d="M423.08,303.88a.74.74,0,0,1-.24.56.82.82,0,0,1-.58.24.74.74,0,0,1-.58-.24.79.79,0,0,1-.21-.56v-12a.74.74,0,0,1,.23-.57.8.8,0,0,1,.58-.23.81.81,0,0,1,.57.23.78.78,0,0,1,.23.57Z" transform="translate(-406.42 -290.87)"/><path class="cls-1" d="M431.44,304.87a6.28,6.28,0,0,1-4.63-1.79,1.29,1.29,0,0,1-.22-.3.74.74,0,0,1-.09-.36.82.82,0,0,1,.23-.56.71.71,0,0,1,.55-.24.67.67,0,0,1,.49.22,5.5,5.5,0,0,0,1.64,1.12,4.87,4.87,0,0,0,2,.39,4.24,4.24,0,0,0,1.55-.27,2.68,2.68,0,0,0,1.1-.76,1.7,1.7,0,0,0,.4-1.13,2,2,0,0,0-.45-1.28,3.26,3.26,0,0,0-1.21-.84,9.79,9.79,0,0,0-1.78-.58,11.7,11.7,0,0,1-1.64-.52,5.07,5.07,0,0,1-1.29-.77,3.08,3.08,0,0,1-.85-1.11,3.6,3.6,0,0,1-.3-1.53,3.31,3.31,0,0,1,.58-1.94,3.73,3.73,0,0,1,1.62-1.29,5.66,5.66,0,0,1,2.37-.46,6.39,6.39,0,0,1,2.24.39,4.31,4.31,0,0,1,1.71,1.07,1,1,0,0,1,.38.72.74.74,0,0,1-.24.53.78.78,0,0,1-.55.25.59.59,0,0,1-.39-.16,3.15,3.15,0,0,0-.84-.66,4.81,4.81,0,0,0-1.11-.47,4.14,4.14,0,0,0-1.2-.17,4.29,4.29,0,0,0-1.58.26,2.44,2.44,0,0,0-1.06.74,1.91,1.91,0,0,0,.05,2.35,3.16,3.16,0,0,0,1.15.78,11.84,11.84,0,0,0,1.59.53,16,16,0,0,1,1.76.54,5.09,5.09,0,0,1,1.39.75,3.06,3.06,0,0,1,.91,1.13,4.11,4.11,0,0,1,.32,1.71,3.18,3.18,0,0,1-.6,1.9,4,4,0,0,1-1.65,1.31A5.66,5.66,0,0,1,431.44,304.87Z" transform="translate(-406.42 -290.87)"/></svg>