<svg id="Camada_2" data-name="Camada 2" xmlns="http://www.w3.org/2000/svg" viewBox="0 0 16 14.9"><defs><style>.cls-1{fill:#211915;}</style></defs><title>tipo-area</title><path class="cls-1" d="M16,15.14V2.36c0-.19-.23-.22-.23-.22S10.87.66,10.56.63s-4.9,1.58-4.9,1.58a.43.43,0,0,1-.24,0L.24.57C.1.51,0,.61,0,.82v12.8a.23.23,0,0,0,.2.25L5,15.14a1,1,0,0,0,.62,0l4.92-1.25s5,1.54,5.22,1.54S16,15.14,16,15.14ZM.45,13.39V1.2L5.06,2.69l0,11.93Zm9.77.11L5.63,14.7V2.84L10.22,1.3ZM15.5,15l-4.67-1.44L10.75,1.3,15.5,2.65Z" transform="translate(0 -0.55)"/></svg>