<svg id="Camada_1" data-name="Camada 1" xmlns="http://www.w3.org/2000/svg" viewBox="0 0 12.5 14"><title>linha-transmissao 2</title><path d="M1.29,13.87c0,.14-.48.18-.51.06a4.1,4.1,0,0,1,1.34-3.22A7.4,7.4,0,0,1,5,9.17,11.05,11.05,0,0,0,8,7.88,4.76,4.76,0,0,0,9.65,5.75C10.19,4.39,10,4,10.72,2.38,11,1.62,12,0,13.13,0c.14,0,.21.49,0,.51s-1,0-1.93,2.09a8.92,8.92,0,0,0-.66,2.1A7,7,0,0,1,9.42,7.2a5.83,5.83,0,0,1-2,1.61s-1.1.46-1.54.61A11.88,11.88,0,0,0,3,10.63,4.16,4.16,0,0,0,1.29,13.87Z" transform="translate(-0.76)"/></svg>