<svg id="Camada_2" data-name="Camada 2" xmlns="http://www.w3.org/2000/svg" viewBox="0 0 16 16"><title>gerenciamento-area</title><path d="M1.5,1a.5.5,0,0,0-.5.5v4A.5.5,0,0,1,.5,6,.5.5,0,0,1,0,5.5v-4A1.5,1.5,0,0,1,1.5,0h4A.5.5,0,0,1,6,.5a.5.5,0,0,1-.5.5ZM10,.5a.5.5,0,0,1,.5-.5h4A1.5,1.5,0,0,1,16,1.5v4a.5.5,0,0,1-1,0v-4a.5.5,0,0,0-.5-.5h-4A.5.5,0,0,1,10,.5ZM.5,10a.5.5,0,0,1,.5.5v4a.5.5,0,0,0,.5.5h4a.5.5,0,0,1,0,1h-4A1.5,1.5,0,0,1,0,14.5H0v-4A.5.5,0,0,1,.5,10Zm15,0a.5.5,0,0,1,.5.5v4A1.5,1.5,0,0,1,14.5,16h-4a.5.5,0,0,1,0-1h4a.5.5,0,0,0,.5-.5v-4A.5.5,0,0,1,15.5,10Z" transform="translate(0)"/><path d="M8,14.5s4.88-4.62,4.88-8.12a4.88,4.88,0,1,0-9.75,0C3.13,9.88,8,14.5,8,14.5ZM8,8.81a2.44,2.44,0,1,1,2.44-2.43A2.43,2.43,0,0,1,8,8.81Z" transform="translate(0)"/></svg>