<svg id="Camada_1" data-name="Camada 1" xmlns="http://www.w3.org/2000/svg" viewBox="0 0 15.62 16"><title>padrao-csv</title><path d="M.19,4.73A1.61,1.61,0,0,1,1.8,3.12H7.35C7,8.26,11.51,8.91,13.07,8.65v5.74A1.61,1.61,0,0,1,11.46,16H1.8A1.61,1.61,0,0,1,.19,14.39ZM12.27,9.56H9.05V12h3.22Zm0,3.22H9.05v2.41h2.41a.8.8,0,0,0,.81-.8Zm-4,2.41V12.78H5v2.41Zm-4,0V12.78H1v1.61a.8.8,0,0,0,.81.8ZM1,12H4.21V9.56H1ZM1,8.75H4.21V6.34H1ZM5,6.34V8.75H8.24V6.8c-.18-.25-.28-.44-.3-.46ZM8.24,9.56H5V12H8.24Z" transform="translate(-0.19)"/><path d="M15.81,5a5,5,0,1,1-5-5A5,5,0,0,1,15.81,5ZM13.33,3.1a.47.47,0,0,0-.66,0v0L10.49,5.88,9.19,4.57a.47.47,0,0,0-.66.66l1.65,1.65a.45.45,0,0,0,.66,0h0l2.49-3.11a.47.47,0,0,0,0-.66Z" transform="translate(-0.19)"/></svg>