<svg id="Camada_1" data-name="Camada 1" xmlns="http://www.w3.org/2000/svg" viewBox="0 0 16.5 16"><title>print-tela</title><path d="M997.3,550.38a1,1,0,1,1-1-1A1,1,0,0,1,997.3,550.38Z" transform="translate(-990.59 -544)"/><path d="M994.71,547.46a1.3,1.3,0,0,0-1.3,1.3v6.48a1.3,1.3,0,0,0,1.3,1.3h7.77a1.3,1.3,0,0,0,1.3-1.3v-6.48a1.3,1.3,0,0,0-1.3-1.3Zm7.77.65a.65.65,0,0,1,.65.65V553l-2.45-1.26a.32.32,0,0,0-.37.06l-2.41,2.4L996.18,553a.32.32,0,0,0-.41,0l-1.71,1.52v-5.83a.65.65,0,0,1,.65-.65Z" transform="translate(-990.59 -544)"/><path d="M991.72,544.75a.38.38,0,0,0-.38.38v3a.37.37,0,0,1-.37.37.38.38,0,0,1-.38-.37v-3a1.13,1.13,0,0,1,1.13-1.13h3a.38.38,0,0,1,0,.75Zm10.37-.37a.38.38,0,0,1,.38-.38h3a1.12,1.12,0,0,1,1.12,1.13v3a.37.37,0,0,1-.37.37.38.38,0,0,1-.38-.37v-3a.37.37,0,0,0-.37-.38h-3A.38.38,0,0,1,1002.09,544.38ZM991,555.5a.37.37,0,0,1,.37.38v3a.38.38,0,0,0,.38.37h3a.38.38,0,0,1,0,.75h-3a1.13,1.13,0,0,1-1.13-1.12h0v-3A.38.38,0,0,1,991,555.5Zm15.75,0a.37.37,0,0,1,.37.38v3A1.12,1.12,0,0,1,1006,560h-3a.38.38,0,1,1,0-.75h3a.37.37,0,0,0,.37-.37v-3A.38.38,0,0,1,1006.72,555.5Z" transform="translate(-990.59 -544)"/></svg>