<svg id="Camada_1" data-name="Camada 1" xmlns="http://www.w3.org/2000/svg" viewBox="0 0 72.5 14"><defs><style>.cls-1{fill:#211915;}</style></defs><title>radar-mosaicogeral</title><path class="cls-1" d="M439.07,304.34a.8.8,0,0,1-.58-.23.77.77,0,0,1-.23-.56V292.66l.23.27-2.16,1.49a.77.77,0,0,1-.44.14.76.76,0,0,1-.56-.24.78.78,0,0,1-.23-.55.77.77,0,0,1,.41-.67l3-2a1.2,1.2,0,0,1,.31-.13,1,1,0,0,1,.3,0,.71.71,0,0,1,.55.22.81.81,0,0,1,.2.55v11.84a.74.74,0,0,1-.24.56A.85.85,0,0,1,439.07,304.34Z" transform="translate(-385.72 -290.53)"/><path class="cls-1" d="M453.44,304.53a4,4,0,0,1-2.65-.9,5.47,5.47,0,0,1-1.61-2.47,11.6,11.6,0,0,1,0-7.06,5.51,5.51,0,0,1,1.61-2.45,4.35,4.35,0,0,1,5.3,0,5.49,5.49,0,0,1,1.6,2.45,12,12,0,0,1,0,7.06,5.45,5.45,0,0,1-1.6,2.47A4,4,0,0,1,453.44,304.53Zm0-1.55a2.45,2.45,0,0,0,1.71-.65,4.06,4.06,0,0,0,1.06-1.85,11.16,11.16,0,0,0,0-5.7,4,4,0,0,0-1.06-1.84,2.62,2.62,0,0,0-3.43,0,4.16,4.16,0,0,0-1.07,1.84,11.16,11.16,0,0,0,0,5.7,4.25,4.25,0,0,0,1.07,1.85A2.45,2.45,0,0,0,453.44,303Z" transform="translate(-385.72 -290.53)"/><circle class="cls-1" cx="59.04" cy="12.73" r="1.07"/><path class="cls-1" d="M386.51,290.7a.79.79,0,0,1,.37.1.73.73,0,0,1,.32.25l5.07,7.67-.67,0,5.13-7.65a.71.71,0,0,1,.65-.35.87.87,0,0,1,.54.23.74.74,0,0,1,.23.56v11.84a.77.77,0,0,1-.23.56.82.82,0,0,1-.58.23.79.79,0,0,1-.8-.79V292.94l.48.1-4.52,6.87a1.27,1.27,0,0,1-.28.23.68.68,0,0,1-.33.09.76.76,0,0,1-.35-.09,1.08,1.08,0,0,1-.28-.23L386.8,293l.4-.5v10.79a.79.79,0,0,1-.21.56.71.71,0,0,1-.54.23.65.65,0,0,1-.52-.23.79.79,0,0,1-.21-.56V291.49a.78.78,0,0,1,.23-.55A.71.71,0,0,1,386.51,290.7Z" transform="translate(-385.72 -290.53)"/><path class="cls-1" d="M414.53,297.42a7.61,7.61,0,0,1-.48,2.73,6.8,6.8,0,0,1-1.34,2.19,6,6,0,0,1-2,1.45,6.69,6.69,0,0,1-5.17,0,5.94,5.94,0,0,1-2-1.45,6.8,6.8,0,0,1-1.34-2.19,8.06,8.06,0,0,1,0-5.48,6.65,6.65,0,0,1,1.34-2.18,5.91,5.91,0,0,1,2-1.44,6.69,6.69,0,0,1,5.17,0,6,6,0,0,1,2,1.44,6.65,6.65,0,0,1,1.34,2.18A7.64,7.64,0,0,1,414.53,297.42Zm-1.65,0a5.86,5.86,0,0,0-.62-2.77,4.8,4.8,0,0,0-1.69-1.9,4.86,4.86,0,0,0-5,0,4.73,4.73,0,0,0-1.69,1.9,6,6,0,0,0-.61,2.77,6.07,6.07,0,0,0,.61,2.77,4.73,4.73,0,0,0,1.69,1.9,4.86,4.86,0,0,0,5,0,4.8,4.8,0,0,0,1.69-1.9A6,6,0,0,0,412.88,297.42Z" transform="translate(-385.72 -290.53)"/><path class="cls-1" d="M421.94,304.31a6.76,6.76,0,0,1-2.49-.42,6.59,6.59,0,0,1-2.07-1.34,1.29,1.29,0,0,1-.22-.3.7.7,0,0,1-.09-.35.82.82,0,0,1,.22-.55.72.72,0,0,1,.55-.24.66.66,0,0,1,.48.21,5.21,5.21,0,0,0,1.62,1.11,4.73,4.73,0,0,0,2,.39,4.07,4.07,0,0,0,1.52-.27,2.68,2.68,0,0,0,1.08-.75,1.67,1.67,0,0,0,.4-1.11,1.9,1.9,0,0,0-.45-1.26,3.28,3.28,0,0,0-1.19-.83,9.46,9.46,0,0,0-1.75-.57,11.27,11.27,0,0,1-1.61-.51,5.16,5.16,0,0,1-1.28-.76,3.2,3.2,0,0,1-.83-1.09,3.52,3.52,0,0,1-.3-1.5,3.3,3.3,0,0,1,.58-1.92,3.68,3.68,0,0,1,1.59-1.27,5.66,5.66,0,0,1,2.33-.45,6.45,6.45,0,0,1,2.21.38,4.29,4.29,0,0,1,1.68,1.06,1,1,0,0,1,.38.7.82.82,0,0,1-.78.77.6.6,0,0,1-.39-.15,3.25,3.25,0,0,0-.82-.66,4.8,4.8,0,0,0-1.09-.45A4.09,4.09,0,0,0,422,292a4.38,4.38,0,0,0-1.55.26,2.44,2.44,0,0,0-1,.73,1.89,1.89,0,0,0,.05,2.31,3,3,0,0,0,1.13.77,12.52,12.52,0,0,0,1.57.53,16.94,16.94,0,0,1,1.73.52,5.57,5.57,0,0,1,1.37.74,3,3,0,0,1,.89,1.12,4,4,0,0,1,.31,1.67,3.16,3.16,0,0,1-.59,1.88,4,4,0,0,1-1.62,1.29A5.66,5.66,0,0,1,421.94,304.31Z" transform="translate(-385.72 -290.53)"/></svg>