<svg id="Camada_1" data-name="Camada 1" xmlns="http://www.w3.org/2000/svg" viewBox="0 0 14 14"><title>estiagem_ok</title><path d="M13.59,9.07H.41A.42.42,0,0,0,0,9.49v4.1A.42.42,0,0,0,.41,14H13.59a.42.42,0,0,0,.41-.41V9.49A.42.42,0,0,0,13.59,9.07ZM13.5,13.5H.5v-4h13Z"/><path d="M13.5,11.76s-.59.34-.79.5a8.14,8.14,0,0,1-1.93-.12c-.3,0-.58-.42-.64-.5s0-.19,0-.19l.17-.44a1.22,1.22,0,0,1,.31-.51l1.14-1H11s-.53.45-.65.57a.26.26,0,0,1-.25.08L9.46,10H9.28c-.09,0-1.44.4-1.44.4l-.45-.87H6.83l.26.4-1.42.26-.62-.66H4.33l.93.91c.19.17,0,.64,0,.83s-.5.3-.82.32a10.56,10.56,0,0,1-1.87-.74c.59-.41.54-.71.54-.71V9.54H2.57v.55c0,.16,0,.16-.38.48A7.43,7.43,0,0,1,.5,11.3v.53l1.59-.62,1.71.73L2.24,13.5h.67l1.18-1.16s0,.1.06.38a.66.66,0,0,0,.22.34L5,13.5h.86s-.75-.51-1-.67a.57.57,0,0,1-.29-.35s0-.18-.08-.33.71-.25.83-.25a5.66,5.66,0,0,1,.89.34l.24.12h.15c.09,0,1.31-.44,1.31-.44v1l.52.59H9.66l.91-.92,1.8.21.15.71H13l-.16-.81.65-.38Zm-5.71-.2c-.06,0-1.26.31-1.26.31l-.9-.35.17-.85,1.47-.28.52,1S7.84,11.56,7.79,11.56ZM8.07,11s-.08-.15,0-.16,1.13-.31,1.13-.31a.84.84,0,0,1,.29,0l.45.1-.26.83H8.28Zm2,1.47L9,13.45l-.61-.7v-.88H9.71s.32.32.4.42S10.11,12.45,10.11,12.45Z"/><path d="M12.19,9.54l.41,1s0,.11.2.15l.7.17V10.4l-.4-.1s-.1,0-.16-.16-.22-.6-.22-.6Z"/><path d="M4.31,5.93A1.62,1.62,0,1,1,5.93,4.31,1.63,1.63,0,0,1,4.31,5.93Zm0,.54A2.16,2.16,0,1,0,2.16,4.31,2.16,2.16,0,0,0,4.31,6.47ZM4.31,0a.27.27,0,0,1,.27.27V1.35a.27.27,0,1,1-.54,0V.27A.27.27,0,0,1,4.31,0Zm0,7a.27.27,0,0,1,.27.27V8.35a.27.27,0,0,1-.54,0V7.28A.27.27,0,0,1,4.31,7Zm4.31-2.7a.27.27,0,0,1-.27.27H7.28a.27.27,0,1,1,0-.54H8.35A.27.27,0,0,1,8.62,4.31Zm-7,0a.27.27,0,0,1-.27.27H.27A.27.27,0,0,1,.27,4H1.35A.27.27,0,0,1,1.62,4.31Zm5.74-3a.26.26,0,0,1,0,.38l-.76.77a.28.28,0,0,1-.38,0,.27.27,0,0,1,0-.39L7,1.26A.28.28,0,0,1,7.36,1.26Zm-4.95,5a.28.28,0,0,1,0,.38l-.77.76a.27.27,0,0,1-.38,0,.27.27,0,0,1,0-.37L2,6.22A.27.27,0,0,1,2.41,6.22Zm5,1.14a.26.26,0,0,1-.38,0L6.22,6.6a.27.27,0,0,1,0-.38.28.28,0,0,1,.38,0L7.36,7A.26.26,0,0,1,7.36,7.36ZM2.41,2.41a.29.29,0,0,1-.39,0l-.76-.77a.27.27,0,0,1,.38-.38h0L2.41,2a.29.29,0,0,1,0,.39Z"/></svg>