<svg width="17" height="14" viewBox="0 0 17 14" fill="none" xmlns="http://www.w3.org/2000/svg">
<path d="M1.8726 13.9108H0V0H1.8726V13.9108Z" fill="#2F4966"/>
<path d="M3.47766 13.0193C3.47766 12.7518 3.56683 12.4842 3.74518 12.2167C3.92352 12.0384 4.19103 11.9492 4.54772 11.9492C4.90441 11.9492 5.17192 12.0384 5.35027 12.2167C5.52861 12.3951 5.61778 12.6626 5.61778 13.0193C5.61778 13.2868 5.52861 13.5543 5.35027 13.7327C5.17192 13.911 4.90441 14.0002 4.54772 14.0002C4.19103 14.0002 3.92352 13.911 3.74518 13.7327C3.56683 13.5543 3.47766 13.2868 3.47766 13.0193Z" fill="#2F4966"/>
<path d="M10.4553 11.5031L14.4681 0H16.519L11.3471 13.9108H9.74196L4.48083 0H6.44261L10.4553 11.5031Z" fill="#2F4966"/>
<path d="M13.9108 13.0193C13.9108 12.7518 13.9999 12.4842 14.1783 12.2167C14.3566 12.0384 14.6241 11.9492 14.9808 11.9492C15.3375 11.9492 15.605 12.0384 15.7834 12.2167C15.9617 12.3951 16.0509 12.6626 16.0509 13.0193C16.0509 13.2868 15.9617 13.5543 15.7834 13.7327C15.605 13.911 15.3375 14.0002 14.9808 14.0002C14.6241 14.0002 14.3566 13.911 14.1783 13.7327C13.9999 13.5543 13.9108 13.2868 13.9108 13.0193Z" fill="#2F4966"/>
</svg>
