<svg width="16" height="10" viewBox="0 0 16 10" fill="none" xmlns="http://www.w3.org/2000/svg">
<path d="M7.11763 0.385395L0.354096 7.1609C0.241895 7.27218 0.152839 7.40458 0.0920644 7.55046C0.0312899 7.69633 -5.92754e-08 7.8528 -5.23677e-08 8.01083C-4.546e-08 8.16886 0.03129 8.32532 0.0920644 8.4712C0.152839 8.61708 0.241895 8.74947 0.354096 8.86076C0.578385 9.08372 0.881788 9.20886 1.19804 9.20886C1.51429 9.20886 1.8177 9.08372 2.04199 8.86076L8.02741 2.93519L13.953 8.86076C14.1773 9.08372 14.4807 9.20886 14.7969 9.20886C15.1132 9.20886 15.4166 9.08372 15.6409 8.86076C15.754 8.74989 15.844 8.61768 15.9056 8.47178C15.9673 8.32589 15.9993 8.16921 16 8.01083C15.9993 7.85244 15.9673 7.69577 15.9056 7.54987C15.844 7.40398 15.754 7.27176 15.6409 7.1609L8.87734 0.385395C8.76525 0.263885 8.6292 0.166911 8.47776 0.100584C8.32633 0.0342563 8.1628 1.40134e-05 7.99749 1.40207e-05C7.83217 1.40279e-05 7.66864 0.0342563 7.51721 0.100584C7.36578 0.166911 7.22973 0.263885 7.11763 0.385395V0.385395Z" fill="black"/>
</svg>
