<svg id="Camada_2" data-name="Camada 2" xmlns="http://www.w3.org/2000/svg" viewBox="0 0 14 12.23"><defs><style>.cls-1{opacity:0.5;}</style></defs><title>ondas-de-frio</title><g class="cls-1"><path d="M0,6.17s2.83-2,8-.84a9.44,9.44,0,0,0,6-.58s-.12,2.86-3.66,2.86a11.82,11.82,0,0,1-3.59-.84A13.8,13.8,0,0,0,0,6.17Z" transform="translate(0 -0.88)"/><path d="M1.42,7.43a7.27,7.27,0,0,1,4.25.08c2.22.75,2.38,1.76,6.91.89,0,0-3,2.91-6.24,1C3.54,7.57,2.94,7.53,1.42,7.43Z" transform="translate(0 -0.88)"/></g><path d="M10.44,2A1.46,1.46,0,0,0,9,3.45a.3.3,0,0,1-.3.29.29.29,0,0,1-.29-.29,2.06,2.06,0,1,1,2,2.06h-7a.3.3,0,0,1-.29-.3.29.29,0,0,1,.29-.29h7a1.47,1.47,0,0,0,0-2.94Z" transform="translate(0 -0.88)"/><path d="M10.44,12.53A1.46,1.46,0,0,1,9,11.06a.3.3,0,0,0-.3-.29.29.29,0,0,0-.29.29,2.06,2.06,0,1,0,2-2.06h-7a.3.3,0,0,0,0,.59h7a1.47,1.47,0,1,1,0,2.94Z" transform="translate(0 -0.88)"/><path d="M9.33,6.23s2.72.73,4.24-1.31c.07-.12.5.15.42.26S12.64,7.45,9.17,6.7C9.06,6.7,9.12,6.16,9.33,6.23Z" transform="translate(0 -0.88)"/><path d="M2.31,9.54S4.09,11.72,6.52,11c.13-.05.32.42.18.46S4.28,12.47,1.9,9.83C1.81,9.77,2.18,9.37,2.31,9.54Z" transform="translate(0 -0.88)"/><path d="M1.42,1.26a.16.16,0,0,1,.16.16v.37L1.9,1.6a.17.17,0,0,1,.22.07.16.16,0,0,1-.06.21l-.32.18.32.18a.16.16,0,0,1,0,.22.16.16,0,0,1-.21.06l-.32-.19V2.7a.16.16,0,0,1-.32,0V2.33l-.32.19a.16.16,0,0,1-.21-.07.16.16,0,0,1,.05-.21l.32-.18L.78,1.88a.17.17,0,0,1-.05-.22A.16.16,0,0,1,.94,1.6l.32.18V1.42A.16.16,0,0,1,1.42,1.26Z" transform="translate(0 -0.88)"/><path d="M1.28,3.59a8.36,8.36,0,0,1,4.24-.78V3.3a10,10,0,0,0-4,.7Z" transform="translate(0 -0.88)"/><path d="M7.52.88A.16.16,0,0,1,7.68,1v.37L8,1.22a.16.16,0,0,1,.22.07.16.16,0,0,1-.06.21l-.32.18.32.18a.16.16,0,0,1,.05.22A.16.16,0,0,1,8,2.14L7.68,2v.37a.16.16,0,0,1-.32,0V2L7,2.14a.16.16,0,0,1-.21-.07.15.15,0,0,1,.06-.21l.31-.18L6.89,1.5A.16.16,0,0,1,7,1.22l.32.18V1A.16.16,0,0,1,7.52.88Z" transform="translate(0 -0.88)"/><rect x="6" y="1.92" width="0.51" height="0.51" rx="0.05"/><path d="M1.68,7.79A.16.16,0,0,1,1.84,8v.37l.32-.19a.17.17,0,0,1,.22.07.16.16,0,0,1-.06.21L2,8.59l.32.18a.16.16,0,0,1-.16.28l-.32-.18v.36a.16.16,0,1,1-.32,0V8.87l-.32.18A.15.15,0,0,1,1,9,.15.15,0,0,1,1,8.77l.32-.18L1,8.41A.16.16,0,0,1,1,8.19a.16.16,0,0,1,.21-.06l.32.19V8A.16.16,0,0,1,1.68,7.79Z" transform="translate(0 -0.88)"/></svg>