<svg xmlns="http://www.w3.org/2000/svg" viewBox="0 0 22.25 14"><defs><style>.cls-1{fill:#040006;}</style></defs><title>Ativo 2</title><g id="Camada_2" data-name="Camada 2"><g id="Camada_1-2" data-name="Camada 1"><path class="cls-1" d="M1.66,13.18a.79.79,0,0,1-.25.58A.84.84,0,0,1,.82,14a.77.77,0,0,1-.6-.24A.81.81,0,0,1,0,13.18V.86A.78.78,0,0,1,.24.27.85.85,0,0,1,.84,0a.83.83,0,0,1,.58.23.81.81,0,0,1,.24.59Z"/><path class="cls-1" d="M21.43,0A.84.84,0,0,1,22,.23a.69.69,0,0,1,.24.55,1.13,1.13,0,0,1-.08.36L17,13.48a.8.8,0,0,1-.33.39.76.76,0,0,1-.44.13.82.82,0,0,1-.42-.15.79.79,0,0,1-.3-.37L10.28,1.16,10.22,1a1.11,1.11,0,0,1,0-.19.71.71,0,0,1,.27-.59A.88.88,0,0,1,11,0a.81.81,0,0,1,.78.56l4.77,11.37h-.46L20.69.52A.79.79,0,0,1,21.43,0Z"/><circle class="cls-1" cx="6.43" cy="12.6" r="1.37"/></g></g></svg>