<svg width="34" height="14" viewBox="0 0 34 14" fill="none" xmlns="http://www.w3.org/2000/svg">
<path d="M10.5217 12C10.087 12.6957 9.3913 13.1304 8.6087 13.4783C7.82609 13.8261 6.78261 14 5.73913 14C4.6087 14 3.65217 13.7391 2.78261 13.2174C1.91304 12.6957 1.21739 12 0.782609 10.9565C0.26087 10 0 8.86957 0 7.65217V6.43478C0 4.34783 0.434783 2.78261 1.3913 1.65217C2.34783 0.521739 3.73913 0 5.47826 0C6.86957 0 8 0.347826 8.86956 1.13043C9.73913 1.82609 10.2609 2.86957 10.4348 4.26087H8.69565C8.34783 2.34783 7.30435 1.47826 5.47826 1.47826C4.26087 1.47826 3.3913 1.91304 2.78261 2.78261C2.17391 3.65217 1.82609 4.78261 1.82609 6.43478V7.56522C1.82609 9.13043 2.17391 10.3478 2.86957 11.2174C3.56522 12.087 4.52174 12.6087 5.73913 12.6087C6.43478 12.6087 6.95652 12.5217 7.47826 12.3478C8 12.1739 8.43478 11.913 8.69565 11.5652V8.52174H5.56522V7.04348H10.5217V12V12Z" fill="#2F4966"/>
<path d="M15.3046 12.3482H21.7394V13.8265H13.4785V0.174316H15.3046V12.3482Z" fill="#2F4966"/>
<path d="M23.7393 13.8265V0.174316H27.5653C28.7827 0.174316 29.8262 0.435186 30.6958 0.956925C31.5653 1.47866 32.348 2.26127 32.7827 3.21779C33.3045 4.17432 33.5653 5.30475 33.5653 6.52214V7.39171C33.5653 8.69606 33.3045 9.82649 32.7827 10.783C32.261 11.7395 31.5653 12.5221 30.6958 13.0439C29.7393 13.5656 28.6958 13.8265 27.4784 13.8265H23.7393ZM25.5653 1.65258V12.3482H27.4784C28.8697 12.3482 29.9132 11.9134 30.6958 11.0439C31.4784 10.1743 31.8262 8.95692 31.8262 7.39171V6.52214C31.8262 4.95693 31.4784 3.73953 30.6958 2.95693C30.0001 2.08736 28.9566 1.65258 27.6523 1.65258H25.5653V1.65258Z" fill="#2F4966"/>
</svg>
