<svg width="16" height="10" viewBox="0 0 16 10" fill="none" xmlns="http://www.w3.org/2000/svg">
<path d="M7.11763 8.82347L0.354096 2.04796C0.241895 1.93668 0.152839 1.80428 0.0920644 1.65841C0.0312899 1.51253 -5.92754e-08 1.35606 -5.23677e-08 1.19803C-4.546e-08 1.04 0.03129 0.883539 0.0920644 0.737663C0.152839 0.591787 0.241895 0.459388 0.354096 0.348103C0.578385 0.125145 0.881788 3.85442e-08 1.19804 5.2368e-08C1.51429 6.61919e-08 1.8177 0.125145 2.04199 0.348103L8.02741 6.27368L13.953 0.348104C14.1773 0.125146 14.4807 6.32971e-07 14.7969 6.46794e-07C15.1132 6.60618e-07 15.4166 0.125146 15.6409 0.348104C15.754 0.458972 15.844 0.591184 15.9056 0.737079C15.9673 0.882974 15.9993 1.03965 16 1.19803C15.9993 1.35642 15.9673 1.5131 15.9056 1.65899C15.844 1.80489 15.754 1.9371 15.6409 2.04797L8.87734 8.82347C8.76525 8.94498 8.6292 9.04195 8.47776 9.10828C8.32633 9.17461 8.1628 9.20885 7.99749 9.20885C7.83217 9.20885 7.66864 9.17461 7.51721 9.10828C7.36578 9.04195 7.22973 8.94498 7.11763 8.82347V8.82347Z" fill="black"/>
</svg>
