<svg id="Camada_2" data-name="Camada 2" xmlns="http://www.w3.org/2000/svg" viewBox="0 0 13.99 14"><defs><style>.cls-1{fill:#211915;}</style></defs><title>incendios</title><path class="cls-1" d="M4,12.25a2.71,2.71,0,0,1-2.3-2.84A5.64,5.64,0,0,1,3,5.91,1.6,1.6,0,0,0,4.46,7.3c1.14.08,1.48-1.21,1.43-1.79s-.18-1-.18-1.64A4.17,4.17,0,0,1,6.94.93a3.52,3.52,0,0,0,.48,1.83A5.54,5.54,0,0,0,8.57,4.08,3.19,3.19,0,0,1,10,6.72a2.09,2.09,0,0,1-.3,1.22c-.11.17-.26.59.61.59a1.51,1.51,0,0,0,1.45-.91,3.82,3.82,0,0,1,.29,1.63,3,3,0,0,1-2.17,3c-.16,0-.57,0-.57.32,0,.15.07.31.38.3,1.54,0,3-1.76,3-3.63,0-1.34-.64-2.84-1-2.84-.15,0-.25.06-.28.41,0,0,0,1.15-1,1.15a3.85,3.85,0,0,0,.25-1.29A3.56,3.56,0,0,0,9.23,3.88,6.61,6.61,0,0,1,7.86,2.4a3.58,3.58,0,0,1-.3-2S7.63,0,7.25,0A3.62,3.62,0,0,0,5.4,2.25a6.07,6.07,0,0,0-.3,1.89c0,.85.2.87.2,1.45,0,.3-.09,1.13-.84,1.13-.38,0-1-.27-1-1.28,0,0,0-.51-.29-.49S1.12,7.14,1.12,9.25s1.54,3.6,2.76,3.6c0,0,.47,0,.47-.29S4.13,12.26,4,12.25Z" transform="translate(0 0)"/><path class="cls-1" d="M5.24,8.17A2.35,2.35,0,0,0,4,10.38a2.44,2.44,0,0,0,2.73,2.47c3.09,0,3-2.36,3-2.64a4.25,4.25,0,0,0-.92-2.49,4.75,4.75,0,0,1-1-2c0-.48.39-.93-.14-1-.18,0-.76.38-1.17,1.17a3.24,3.24,0,0,0-.39,1.45c0,.82.2.74.2,1.51,0,.41-.11.55-.31.55,0,0-.43,0-.43.3s.38.31.48.3.83-.13.83-1.17c0-.83-.18-.71-.18-1.44A2.45,2.45,0,0,1,7.17,5.8a2.61,2.61,0,0,0,.56,1.51,5.67,5.67,0,0,1,1.37,3c0,.62-.09,2-2.21,1.94-1.55,0-2.24-.8-2.24-1.87A2.24,2.24,0,0,1,5.2,8.9C5.84,8.49,5.46,8.13,5.24,8.17Z" transform="translate(0 0)"/><rect class="cls-1" y="13.39" width="4.97" height="0.61"/><rect class="cls-1" x="9.02" y="13.39" width="4.97" height="0.61"/><rect class="cls-1" x="5.52" y="13.39" width="0.61" height="0.61"/><rect class="cls-1" x="6.7" y="13.39" width="0.61" height="0.61"/><rect class="cls-1" x="7.86" y="13.39" width="0.61" height="0.61"/></svg>