<svg id="Camada_1" data-name="Camada 1" xmlns="http://www.w3.org/2000/svg" viewBox="0 0 14 14"><title>chuva-com-vento</title><path d="M7.44.87A3.51,3.51,0,0,0,4.11,3.28.44.44,0,0,1,3.27,3V3a4.38,4.38,0,0,1,8.45.52,2.63,2.63,0,0,1-.36,5.23H3.94a.44.44,0,1,1,0-.88h7.43a1.75,1.75,0,0,0,0-3.5h0A.44.44,0,0,1,10.91,4,3.5,3.5,0,0,0,7.44.87ZM0,4.81a.44.44,0,0,1,.44-.44H4.81a.44.44,0,0,1,0,.88H.44A.44.44,0,0,1,0,4.81ZM1.75,6.56a.44.44,0,0,1,.44-.44h7.87a.44.44,0,0,1,0,.88H2.19A.44.44,0,0,1,1.75,6.56Z"/><path d="M3.11,10.83a.44.44,0,0,1,.28.6l-.85,2.26a.49.49,0,0,1-.65.27.51.51,0,0,1-.29-.62l.82-2.18A.53.53,0,0,1,3.11,10.83Z"/><path d="M6.11,10.83a.44.44,0,0,1,.28.6l-.85,2.26a.49.49,0,0,1-.65.27.51.51,0,0,1-.29-.62l.82-2.18A.53.53,0,0,1,6.11,10.83Z"/><path d="M9.11,10.83a.44.44,0,0,1,.28.6l-.85,2.26a.49.49,0,0,1-.65.27.51.51,0,0,1-.29-.62l.82-2.18A.53.53,0,0,1,9.11,10.83Z"/><path d="M12.11,10.83a.44.44,0,0,1,.28.6l-.85,2.26a.49.49,0,0,1-.65.27.51.51,0,0,1-.29-.62l.82-2.18A.53.53,0,0,1,12.11,10.83Z"/></svg>