<?xml version="1.0" encoding="utf-8"?>
<!-- Generator: Adobe Illustrator 23.0.1, SVG Export Plug-In . SVG Version: 6.00 Build 0)  -->
<svg version="1.1" id="Camada_1" xmlns="http://www.w3.org/2000/svg" xmlns:xlink="http://www.w3.org/1999/xlink" x="0px" y="0px"
	 viewBox="0 0 16 16" style="enable-background:new 0 0 16 16;" xml:space="preserve">
<path d="M15,8c0,3.9-3.1,7-7,7s-7-3.1-7-7s3.1-7,7-7S15,4.1,15,8z M8,4.5c-0.4,0-0.8,0.4-0.8,0.8c0,0,0,0.1,0,0.1l0.3,3.1
	c0,0.3,0.3,0.5,0.5,0.4c0.2,0,0.4-0.2,0.4-0.4l0.3-3.1C8.8,4.9,8.5,4.5,8,4.5C8.1,4.5,8,4.5,8,4.5z M8,9.8c-0.5,0-0.9,0.4-0.9,0.9
	s0.4,0.9,0.9,0.9s0.9-0.4,0.9-0.9S8.5,9.8,8,9.8z"/>
</svg>
