<svg id="Camada_2" data-name="Camada 2" xmlns="http://www.w3.org/2000/svg" viewBox="0 0 13.08 14"><defs><style>.cls-1{fill-rule:evenodd;}</style></defs><title>seca</title><path class="cls-1" d="M6.31.7C6.73.26,7,0,7,0c.1.32.2.62.32.91a14.3,14.3,0,0,0,2.8,4c1.15,1.28,2.13,2.37,2.13,3.82a5.25,5.25,0,0,1-10.5,0C1.75,5.83,4.88,2.2,6.31.7Zm.36.89c-.56.61-1.1,1.24-1.6,1.9A16.57,16.57,0,0,0,3.35,6.18a6.09,6.09,0,0,0-.72,2.57,4.38,4.38,0,1,0,8.75,0c0-1-.7-1.89-1.91-3.24l0,0A15.31,15.31,0,0,1,6.67,1.59Z" transform="translate(-0.46)"/><path class="cls-1" d="M4.24,6.28A11.61,11.61,0,0,1,6.07,3.54l.62.62A10.87,10.87,0,0,0,5,6.67Z" transform="translate(-0.46)"/><path d="M.66,12.47a.62.62,0,1,0,.87.87ZM13.34,1.53a.62.62,0,1,0-.87-.87ZM1.53,13.34,13.34,1.53,12.47.66.66,12.47Z" transform="translate(-0.46)"/></svg>